<svg width="530" height="400" viewBox="0 0 530 400" fill="none" xmlns="http://www.w3.org/2000/svg">
<g clip-path="url(#clip0_1_2)">
<path d="M305.361 19.4681C309.906 29.1405 300.275 31.8803 289.242 37.0646C278.21 42.2489 269.953 47.9146 265.408 38.2422C260.863 28.5697 257.175 9.37165 272.783 2.03754C288.928 -5.54923 300.816 9.79564 305.361 19.4681Z" fill="#2F2E41"/>
<path d="M282.851 38.49C291.054 38.49 297.704 31.8404 297.704 23.6376C297.704 15.4349 291.054 8.78531 282.851 8.78531C274.649 8.78531 267.999 15.4349 267.999 23.6376C267.999 31.8404 274.649 38.49 282.851 38.49Z" fill="#FFB8B8"/>
<path d="M356.433 89.5047C355.919 88.8335 355.404 88.1743 354.885 87.5333C354.213 86.6988 353.538 85.8905 352.859 85.1084C345.161 76.2252 336.973 70.6317 327.957 70.033H327.945L327.812 70.0209L309.846 87.5333L303.738 93.4837L303.871 93.8102L307.167 102.016H364.911C362.309 97.6982 359.479 93.5217 356.433 89.5047Z" fill="#2F2E41"/>
<path d="M266.701 29.6171L272.017 27.1188L271.277 19.4491L274.832 25.7963L277.373 24.6022L276.941 20.1281L279.015 23.8306L297.897 14.9579C296.123 11.184 292.923 8.2691 289.001 6.8545C285.078 5.43989 280.754 5.64147 276.98 7.41487L274.244 8.70078C270.47 10.4742 267.555 13.6742 266.14 17.5967C264.726 21.5193 264.927 25.8432 266.701 29.6171Z" fill="#2F2E41"/>
<path d="M389.752 299.211H79.6329C76.9876 299.208 74.4515 298.156 72.5809 296.285C70.7104 294.415 69.6582 291.879 69.6552 289.233V102.889C69.6574 100.951 70.4282 99.0933 71.7985 97.7229C73.1689 96.3525 75.0269 95.5816 76.9649 95.5794H392.294C394.265 95.5816 396.155 96.3658 397.549 97.76C398.944 99.1541 399.728 101.044 399.73 103.016V289.233C399.727 291.879 398.675 294.415 396.804 296.285C394.934 298.156 392.397 299.208 389.752 299.211Z" fill="#F2F2F2"/>
<path d="M89.3083 289.233H380.077C382.643 289.233 385.104 288.214 386.918 286.4C388.733 284.585 389.752 282.124 389.752 279.558V121.397C389.752 118.831 388.733 116.37 386.918 114.556C385.104 112.741 382.643 111.722 380.077 111.722H89.3083C86.7422 111.722 84.2813 112.741 82.4668 114.556C80.6523 116.37 79.6329 118.831 79.6329 121.397V279.558C79.6329 282.124 80.6523 284.585 82.4668 286.4C84.2813 288.214 86.7422 289.233 89.3083 289.233Z" fill="white"/>
<path d="M399.591 102.319H69.5152V97.2389C69.519 94.5847 70.5755 92.0405 72.4529 90.1643C74.3302 88.2881 76.8751 87.2332 79.5293 87.231H389.577C392.231 87.2332 394.776 88.2881 396.653 90.1643C398.531 92.0405 399.587 94.5847 399.591 97.2389V102.319Z" fill="#6C63FF"/>
<path d="M87.7142 97.3801C89.1447 97.3801 90.3044 96.2204 90.3044 94.7899C90.3044 93.3593 89.1447 92.1996 87.7142 92.1996C86.2836 92.1996 85.124 93.3593 85.124 94.7899C85.124 96.2204 86.2836 97.3801 87.7142 97.3801Z" fill="white"/>
<path d="M97.546 97.3801C98.9766 97.3801 100.136 96.2204 100.136 94.7899C100.136 93.3593 98.9766 92.1996 97.546 92.1996C96.1155 92.1996 94.9558 93.3593 94.9558 94.7899C94.9558 96.2204 96.1155 97.3801 97.546 97.3801Z" fill="white"/>
<path d="M107.378 97.3801C108.808 97.3801 109.968 96.2204 109.968 94.7899C109.968 93.3593 108.808 92.1996 107.378 92.1996C105.947 92.1996 104.788 93.3593 104.788 94.7899C104.788 96.2204 105.947 97.3801 107.378 97.3801Z" fill="white"/>
<path d="M243.765 254.934H217.763C216.24 254.932 214.779 254.326 213.702 253.249C212.625 252.172 212.02 250.712 212.018 249.189V223.186C212.02 221.663 212.625 220.203 213.702 219.126C214.779 218.049 216.24 217.443 217.763 217.442H243.765C245.288 217.443 246.749 218.049 247.826 219.126C248.903 220.203 249.508 221.663 249.51 223.186V249.189C249.508 250.712 248.903 252.172 247.826 253.249C246.749 254.326 245.288 254.932 243.765 254.934ZM217.763 218.651C216.56 218.652 215.407 219.131 214.557 219.981C213.707 220.831 213.229 221.984 213.227 223.186V249.189C213.229 250.391 213.707 251.544 214.557 252.394C215.407 253.245 216.56 253.723 217.763 253.724H243.765C244.968 253.723 246.121 253.245 246.971 252.394C247.821 251.544 248.299 250.391 248.301 249.189V223.186C248.299 221.984 247.821 220.831 246.971 219.981C246.121 219.131 244.968 218.652 243.765 218.651H217.763Z" fill="#CCCCCC"/>
<path d="M238.625 247.677H222.903C222.422 247.677 221.961 247.485 221.621 247.145C221.28 246.805 221.089 246.344 221.089 245.863V226.512C221.089 226.031 221.28 225.57 221.621 225.23C221.961 224.89 222.422 224.699 222.903 224.698H234.295C234.708 224.698 235.109 224.84 235.432 225.098L239.761 228.578C239.974 228.747 240.145 228.962 240.262 229.207C240.379 229.452 240.44 229.72 240.439 229.992V245.863C240.439 246.344 240.248 246.805 239.907 247.145C239.567 247.485 239.106 247.677 238.625 247.677ZM222.903 225.907C222.742 225.908 222.589 225.971 222.475 226.085C222.362 226.198 222.298 226.352 222.298 226.512V245.863C222.298 246.023 222.362 246.177 222.475 246.29C222.589 246.404 222.742 246.467 222.903 246.468H238.625C238.786 246.467 238.939 246.404 239.053 246.29C239.166 246.177 239.23 246.023 239.23 245.863V229.992C239.23 229.901 239.21 229.812 239.171 229.73C239.132 229.649 239.075 229.577 239.004 229.52L234.674 226.041C234.566 225.955 234.433 225.908 234.295 225.907H222.903Z" fill="#CCCCCC"/>
<path d="M235.602 233.164H225.926C225.766 233.164 225.612 233.1 225.499 232.987C225.385 232.873 225.322 232.72 225.322 232.559C225.322 232.399 225.385 232.245 225.499 232.132C225.612 232.018 225.766 231.955 225.926 231.955H235.602C235.762 231.955 235.916 232.018 236.029 232.132C236.143 232.245 236.206 232.399 236.206 232.559C236.206 232.72 236.143 232.873 236.029 232.987C235.916 233.1 235.762 233.164 235.602 233.164Z" fill="#CCCCCC"/>
<path d="M235.602 236.792H225.926C225.766 236.792 225.612 236.729 225.499 236.615C225.385 236.502 225.322 236.348 225.322 236.188C225.322 236.027 225.385 235.873 225.499 235.76C225.612 235.647 225.766 235.583 225.926 235.583H235.602C235.762 235.583 235.916 235.647 236.029 235.76C236.143 235.873 236.206 236.027 236.206 236.188C236.206 236.348 236.143 236.502 236.029 236.615C235.916 236.729 235.762 236.792 235.602 236.792Z" fill="#CCCCCC"/>
<path d="M235.602 240.421H225.926C225.766 240.421 225.612 240.357 225.499 240.243C225.385 240.13 225.322 239.976 225.322 239.816C225.322 239.655 225.385 239.502 225.499 239.388C225.612 239.275 225.766 239.211 225.926 239.211H235.602C235.762 239.211 235.916 239.275 236.029 239.388C236.143 239.502 236.206 239.655 236.206 239.816C236.206 239.976 236.143 240.13 236.029 240.243C235.916 240.357 235.762 240.421 235.602 240.421Z" fill="#CCCCCC"/>
<path d="M305.446 254.934H279.443C277.92 254.932 276.46 254.326 275.383 253.249C274.306 252.172 273.7 250.712 273.698 249.189V223.186C273.7 221.663 274.306 220.203 275.383 219.126C276.46 218.049 277.92 217.443 279.443 217.442H305.446C306.969 217.443 308.429 218.049 309.506 219.126C310.583 220.203 311.189 221.663 311.191 223.186V249.189C311.189 250.712 310.583 252.172 309.506 253.249C308.429 254.326 306.969 254.932 305.446 254.934ZM279.443 218.651C278.241 218.652 277.088 219.131 276.238 219.981C275.387 220.831 274.909 221.984 274.908 223.186V249.189C274.909 250.391 275.387 251.544 276.238 252.394C277.088 253.245 278.241 253.723 279.443 253.724H305.446C306.648 253.723 307.801 253.245 308.651 252.394C309.502 251.544 309.98 250.391 309.981 249.189V223.186C309.98 221.984 309.502 220.831 308.651 219.981C307.801 219.131 306.648 218.652 305.446 218.651H279.443Z" fill="#CCCCCC"/>
<path d="M300.911 242.839H283.979C283.498 242.839 283.036 242.648 282.696 242.307C282.356 241.967 282.165 241.506 282.164 241.025V231.35C282.165 230.869 282.356 230.408 282.696 230.068C283.036 229.728 283.498 229.536 283.979 229.536H300.911C301.391 229.536 301.853 229.728 302.193 230.068C302.533 230.408 302.724 230.869 302.725 231.35V241.025C302.724 241.506 302.533 241.967 302.193 242.307C301.853 242.648 301.391 242.839 300.911 242.839ZM283.979 230.745C283.818 230.745 283.665 230.809 283.551 230.922C283.438 231.036 283.374 231.19 283.374 231.35V241.025C283.374 241.186 283.438 241.339 283.551 241.453C283.665 241.566 283.818 241.63 283.979 241.63H300.911C301.071 241.63 301.225 241.566 301.338 241.453C301.451 241.339 301.515 241.186 301.515 241.025V231.35C301.515 231.19 301.451 231.036 301.338 230.922C301.225 230.809 301.071 230.745 300.911 230.745H283.979Z" fill="#CCCCCC"/>
<path d="M292.445 237.783C292.105 237.783 291.772 237.689 291.483 237.509L282.448 231.863C282.313 231.778 282.216 231.642 282.181 231.486C282.145 231.33 282.172 231.166 282.257 231.03C282.342 230.894 282.478 230.797 282.634 230.761C282.79 230.725 282.954 230.752 283.09 230.837L292.124 236.483C292.221 236.543 292.332 236.575 292.445 236.575C292.558 236.575 292.669 236.543 292.765 236.483L301.799 230.837C301.935 230.752 302.099 230.725 302.255 230.761C302.411 230.797 302.547 230.894 302.632 231.03C302.717 231.166 302.744 231.33 302.708 231.486C302.673 231.642 302.576 231.778 302.441 231.863L293.407 237.509C293.118 237.689 292.784 237.783 292.445 237.783Z" fill="#CCCCCC"/>
<path d="M182.085 254.934H156.082C154.559 254.932 153.099 254.326 152.022 253.249C150.945 252.172 150.339 250.712 150.337 249.189V223.186C150.339 221.663 150.945 220.203 152.022 219.126C153.099 218.049 154.559 217.443 156.082 217.442H182.085C183.608 217.443 185.068 218.049 186.145 219.126C187.222 220.203 187.828 221.663 187.829 223.186V249.189C187.828 250.712 187.222 252.172 186.145 253.249C185.068 254.326 183.608 254.932 182.085 254.934ZM156.082 218.651C154.88 218.652 153.727 219.131 152.877 219.981C152.026 220.831 151.548 221.984 151.547 223.186V249.189C151.548 250.391 152.026 251.544 152.877 252.394C153.727 253.245 154.88 253.723 156.082 253.724H182.085C183.287 253.723 184.44 253.245 185.29 252.394C186.14 251.544 186.619 250.391 186.62 249.189V223.186C186.619 221.984 186.14 220.831 185.29 219.981C184.44 219.131 183.287 218.652 182.085 218.651H156.082Z" fill="#CCCCCC"/>
<path d="M177.549 242.839H160.617C160.137 242.839 159.675 242.648 159.335 242.307C158.995 241.967 158.804 241.506 158.803 241.025V231.35C158.804 230.869 158.995 230.408 159.335 230.068C159.675 229.728 160.137 229.536 160.617 229.536H177.549C178.03 229.536 178.491 229.728 178.832 230.068C179.172 230.408 179.363 230.869 179.364 231.35V241.025C179.363 241.506 179.172 241.967 178.832 242.307C178.491 242.648 178.03 242.839 177.549 242.839ZM160.617 230.745C160.457 230.745 160.303 230.809 160.19 230.922C160.077 231.036 160.013 231.19 160.013 231.35V241.025C160.013 241.186 160.077 241.339 160.19 241.453C160.303 241.566 160.457 241.63 160.617 241.63H177.549C177.71 241.63 177.863 241.566 177.977 241.453C178.09 241.339 178.154 241.186 178.154 241.025V231.35C178.154 231.19 178.09 231.036 177.977 230.922C177.863 230.809 177.71 230.745 177.549 230.745H160.617Z" fill="#CCCCCC"/>
<path d="M174.866 242.839H162.696C162.484 242.839 162.276 242.784 162.092 242.677C161.908 242.571 161.755 242.419 161.649 242.235C161.543 242.051 161.487 241.842 161.487 241.63C161.487 241.418 161.543 241.209 161.649 241.025L165.315 234.676C165.421 234.492 165.573 234.339 165.757 234.233C165.941 234.127 166.15 234.071 166.362 234.071C166.574 234.071 166.783 234.127 166.967 234.233C167.151 234.339 167.303 234.492 167.41 234.676L169.777 238.776L171.149 236.401C171.255 236.217 171.407 236.064 171.591 235.958C171.775 235.852 171.984 235.796 172.196 235.796C172.408 235.796 172.617 235.852 172.801 235.958C172.985 236.064 173.137 236.217 173.243 236.401L175.913 241.025C176.019 241.209 176.075 241.418 176.075 241.63C176.075 241.842 176.019 242.051 175.913 242.235C175.807 242.419 175.654 242.571 175.47 242.677C175.287 242.784 175.078 242.839 174.866 242.839ZM174.866 241.63L172.196 237.005L170.301 240.288C170.248 240.38 170.171 240.457 170.079 240.51C169.988 240.563 169.883 240.591 169.777 240.591C169.671 240.591 169.567 240.563 169.475 240.51C169.383 240.457 169.306 240.38 169.253 240.288L166.362 235.28L162.696 241.63H174.866Z" fill="#CCCCCC"/>
<path d="M175.735 234.373C176.403 234.373 176.945 233.832 176.945 233.164C176.945 232.496 176.403 231.954 175.735 231.954C175.067 231.954 174.526 232.496 174.526 233.164C174.526 233.832 175.067 234.373 175.735 234.373Z" fill="#CCCCCC"/>
<path d="M464.917 391.944L457.503 391.943L453.977 363.347L464.918 363.348L464.917 391.944Z" fill="#FFB8B8"/>
<path d="M466.808 399.13L442.903 399.129V398.827C442.903 397.605 443.144 396.395 443.611 395.266C444.079 394.137 444.764 393.111 445.628 392.247C446.492 391.383 447.518 390.698 448.647 390.231C449.776 389.763 450.986 389.522 452.208 389.522H452.208L466.808 389.523L466.808 399.13Z" fill="#2F2E41"/>
<path d="M495.153 391.944L487.739 391.943L484.212 363.347L495.154 363.348L495.153 391.944Z" fill="#FFB8B8"/>
<path d="M497.043 399.13L473.139 399.129V398.827C473.139 397.605 473.379 396.395 473.847 395.266C474.315 394.137 475 393.111 475.864 392.247C476.728 391.383 477.754 390.698 478.882 390.231C480.011 389.763 481.221 389.522 482.443 389.522H482.444L497.044 389.523L497.043 399.13Z" fill="#2F2E41"/>
<path d="M492.93 379.547L486.064 377.458C485.552 377.303 485.098 377.001 484.757 376.588C484.417 376.176 484.205 375.672 484.15 375.141L477.748 314.472C477.743 314.399 477.711 314.33 477.657 314.28C477.603 314.23 477.532 314.202 477.459 314.202C477.385 314.195 477.312 314.217 477.254 314.263C477.197 314.309 477.159 314.376 477.15 314.449L466.428 373.227C466.363 373.583 466.227 373.923 466.029 374.227C465.83 374.53 465.574 374.791 465.273 374.994C464.972 375.197 464.635 375.337 464.279 375.408C463.923 375.478 463.557 375.476 463.202 375.403L454.427 373.596C453.783 373.461 453.21 373.099 452.812 372.575C452.414 372.052 452.218 371.403 452.261 370.746L458.783 274.408L503.01 269.636L496.438 377.109C496.396 377.8 496.092 378.449 495.588 378.924C495.084 379.399 494.419 379.664 493.727 379.666C493.457 379.666 493.188 379.626 492.93 379.547Z" fill="#2F2E41"/>
<path d="M492.888 190.513C501.091 190.513 507.74 183.863 507.74 175.661C507.74 167.458 501.091 160.808 492.888 160.808C484.685 160.808 478.036 167.458 478.036 175.661C478.036 183.863 484.685 190.513 492.888 190.513Z" fill="#FFB8B8"/>
<path d="M458.715 274.974L468.304 214.593C468.814 211.383 470.002 208.318 471.789 205.602C473.575 202.886 475.92 200.582 478.666 198.843C481.412 197.104 484.498 195.97 487.716 195.516C490.935 195.062 494.214 195.299 497.334 196.21C502.789 197.788 507.46 201.343 510.435 206.181C513.41 211.018 514.474 216.791 513.42 222.371L503.387 276.295L458.715 274.974Z" fill="#6C63FF"/>
<path d="M496.988 285.778C497.73 285.288 498.356 284.641 498.821 283.884C499.286 283.126 499.579 282.276 499.679 281.392C499.78 280.509 499.686 279.615 499.404 278.772C499.121 277.929 498.657 277.158 498.045 276.514L507.96 257.313L496.794 258.505L489.09 276.555C488.076 277.656 487.501 279.09 487.474 280.587C487.447 282.083 487.969 283.538 488.943 284.675C489.917 285.811 491.273 286.552 492.756 286.755C494.239 286.958 495.745 286.611 496.988 285.778Z" fill="#FFB8B8"/>
<path d="M499.112 273.127C498.563 273.05 498.051 272.807 497.644 272.431L493.851 268.926C493.441 268.545 493.158 268.048 493.04 267.501C492.922 266.955 492.974 266.385 493.19 265.869L500.772 247.899L499.697 212.39C499.851 211.249 500.229 210.149 500.809 209.153C501.389 208.158 502.159 207.287 503.076 206.59C503.993 205.892 505.038 205.382 506.152 205.089C507.266 204.796 508.427 204.725 509.568 204.881C510.709 205.037 511.809 205.416 512.804 205.997C513.798 206.577 514.669 207.349 515.365 208.266C516.062 209.183 516.571 210.229 516.863 211.343C517.155 212.458 517.225 213.618 517.068 214.76L518.907 237.081C519.466 243.855 517.545 250.602 513.502 256.067L501.679 272.051C501.451 272.358 501.162 272.614 500.829 272.802C500.496 272.99 500.127 273.106 499.747 273.142C499.535 273.162 499.322 273.157 499.112 273.127Z" fill="#6C63FF"/>
<path d="M407.358 167.569C407.52 168.443 407.872 169.271 408.388 169.994C408.904 170.718 409.573 171.319 410.347 171.757C411.121 172.194 411.982 172.456 412.868 172.524C413.755 172.593 414.645 172.466 415.477 172.153L429.292 188.77L432.549 178.023L418.93 163.891C418.312 162.528 417.215 161.439 415.848 160.831C414.481 160.222 412.937 160.137 411.511 160.59C410.085 161.043 408.874 162.004 408.109 163.29C407.343 164.576 407.076 166.099 407.358 167.569Z" fill="#FFB8B8"/>
<path d="M418.18 174.456C418.465 173.981 418.888 173.605 419.393 173.376L424.1 171.25C424.61 171.021 425.178 170.954 425.728 171.058C426.277 171.163 426.781 171.433 427.172 171.833L440.765 185.822L473.882 198.676C474.873 199.263 475.739 200.04 476.43 200.962C477.12 201.884 477.622 202.933 477.907 204.05C478.192 205.166 478.254 206.327 478.09 207.468C477.926 208.608 477.538 209.704 476.95 210.695C476.361 211.685 475.584 212.55 474.661 213.24C473.738 213.929 472.688 214.43 471.571 214.714C470.455 214.997 469.293 215.058 468.153 214.893C467.013 214.727 465.917 214.338 464.927 213.749L443.655 206.739C437.199 204.613 431.735 200.213 428.279 194.36L418.17 177.24C417.976 176.911 417.853 176.544 417.81 176.164C417.767 175.785 417.804 175.4 417.919 175.035C417.983 174.833 418.07 174.638 418.18 174.456Z" fill="#6C63FF"/>
<path opacity="0.1" d="M504.935 227.161L504.33 246.512L493.19 265.869L502.492 244.297L504.935 227.161Z" fill="black"/>
<path d="M491.187 178.452C490.254 178.573 489.309 178.352 488.527 177.829C487.745 177.306 487.179 176.517 486.935 175.608C486.7 174.563 486.184 173.601 485.444 172.826C484.703 172.051 483.766 171.493 482.732 171.21C480.007 170.587 476.677 171.87 474.681 169.806C474.254 169.334 473.944 168.768 473.779 168.154C473.613 167.54 473.596 166.895 473.728 166.273C474.096 164.267 475.531 162.751 477.093 161.539C480.379 159.001 484.355 157.514 488.501 157.276C490.647 157.214 492.795 157.32 494.924 157.595C497.153 157.736 499.358 158.139 501.493 158.796C503.925 159.714 506.087 161.23 507.778 163.204C509.47 165.179 510.636 167.548 511.169 170.092C511.657 172.644 511.583 175.272 510.95 177.792C510.317 180.313 509.142 182.665 507.507 184.684C505.549 187.122 503.024 189.044 500.153 190.283C499.469 190.606 498.685 190.645 497.972 190.393C496.184 189.682 496.476 187.467 497.292 185.989C498.164 184.408 499.507 182.877 498.805 180.953C498.453 180.061 497.778 179.334 496.914 178.917C495.136 178.011 493.148 178.225 491.237 178.446L491.187 178.452Z" fill="#2F2E41"/>
<path d="M402.395 186.839H218.563C215.917 186.836 213.381 185.784 211.511 183.914C209.64 182.043 208.588 179.507 208.585 176.861V137.555C208.588 134.91 209.64 132.374 211.511 130.503C213.381 128.633 215.917 127.581 218.563 127.578H402.395C405.04 127.581 407.576 128.633 409.447 130.503C411.317 132.374 412.37 134.91 412.373 137.555V176.861C412.37 179.507 411.317 182.043 409.447 183.913C407.576 185.784 405.04 186.836 402.395 186.839Z" fill="white"/>
<path d="M402.395 187.142H218.563C215.837 187.139 213.224 186.055 211.297 184.127C209.37 182.2 208.286 179.587 208.283 176.862V137.555C208.286 134.83 209.37 132.217 211.297 130.29C213.224 128.362 215.837 127.278 218.563 127.275H402.395C405.12 127.278 407.733 128.362 409.661 130.29C411.588 132.217 412.672 134.83 412.675 137.555V176.862C412.672 179.587 411.588 182.2 409.661 184.127C407.733 186.055 405.12 187.139 402.395 187.142ZM218.563 128.485C216.158 128.487 213.852 129.444 212.152 131.144C210.451 132.845 209.495 135.15 209.492 137.555V176.862C209.495 179.266 210.451 181.572 212.152 183.272C213.852 184.973 216.158 185.93 218.563 185.932H402.395C404.8 185.93 407.105 184.973 408.806 183.272C410.506 181.572 411.463 179.266 411.466 176.862V137.555C411.463 135.15 410.506 132.845 408.806 131.144C407.105 129.444 404.8 128.487 402.395 128.485H218.563Z" fill="#3F3D56"/>
<path d="M380.021 177.164H240.937C238.292 177.161 235.755 176.109 233.885 174.238C232.014 172.368 230.962 169.832 230.959 167.186V146.626C230.962 143.981 232.014 141.445 233.885 139.574C235.755 137.703 238.292 136.651 240.937 136.648H380.021C382.666 136.651 385.202 137.703 387.073 139.574C388.943 141.445 389.995 143.981 389.998 146.626V167.186C389.995 169.832 388.943 172.368 387.073 174.238C385.202 176.109 382.666 177.161 380.021 177.164Z" fill="#F2F2F2"/>
<path d="M270.867 166.082C277.457 166.082 282.799 160.74 282.799 154.15C282.799 147.56 277.457 142.218 270.867 142.218C264.277 142.218 258.935 147.56 258.935 154.15C258.935 160.74 264.277 166.082 270.867 166.082Z" fill="#FF6584"/>
<path d="M371.377 175.96L354.535 161.834L337.983 147.952C337.546 147.586 336.994 147.385 336.424 147.386C335.854 147.388 335.302 147.59 334.867 147.958L318.368 161.904L314.338 165.31L308.262 160.214L289.796 144.727C289.359 144.36 288.807 144.16 288.237 144.161C287.667 144.162 287.116 144.365 286.68 144.733L268.274 160.291L249.578 176.094C249.483 176.174 249.416 176.282 249.384 176.401C249.352 176.521 249.358 176.648 249.401 176.764C249.444 176.881 249.521 176.981 249.623 177.052C249.725 177.123 249.846 177.161 249.97 177.161L288.3 177.087L300.433 177.064L300.315 177.164L336.481 177.094L370.99 177.028C371.114 177.028 371.235 176.989 371.336 176.918C371.438 176.847 371.515 176.746 371.557 176.629C371.6 176.513 371.605 176.386 371.573 176.266C371.541 176.146 371.472 176.039 371.377 175.96Z" fill="#3F3D56"/>
<path d="M529.287 400H413.182C413.022 400 412.868 399.936 412.754 399.823C412.641 399.709 412.577 399.556 412.577 399.395C412.577 399.235 412.641 399.081 412.754 398.968C412.868 398.854 413.022 398.791 413.182 398.791H529.287C529.447 398.791 529.601 398.854 529.714 398.968C529.828 399.081 529.891 399.235 529.891 399.395C529.891 399.556 529.828 399.709 529.714 399.823C529.601 399.936 529.447 400 529.287 400Z" fill="#CCCCCC"/>
<path d="M365.28 79.7688C364.796 78.984 364.159 78.3058 363.405 77.7756C362.651 77.2453 361.797 76.8742 360.895 76.6848C360.565 76.6153 360.229 76.5729 359.892 76.5578L313.819 35.3649C312.914 34.4347 311.706 33.8579 310.414 33.7382C310.159 33.7089 309.902 33.7008 309.646 33.714C308.583 33.7623 307.557 34.1193 306.694 34.7414C305.83 35.3634 305.167 36.2235 304.785 37.2166C304.402 38.2096 304.318 39.2926 304.541 40.333C304.764 41.3734 305.286 42.3262 306.042 43.0749L323.681 58.4528L352.647 83.6995C352.671 84.175 352.742 84.6469 352.859 85.1084C353.205 86.4454 353.95 87.6454 354.995 88.5493C356.039 89.4532 357.333 90.0184 358.706 90.1699C359.958 90.3161 361.226 90.1065 362.365 89.5652C363.268 89.143 364.068 88.5303 364.711 87.7692C364.778 87.6905 364.838 87.618 364.899 87.5333C365.744 86.4314 366.234 85.0979 366.302 83.7106C366.37 82.3233 366.013 80.9482 365.28 79.7688Z" fill="#FFB8B8"/>
<path d="M286.474 119.468L286.044 102.016L285.681 87.5334L285.433 77.3984L284.944 57.6425C284.847 56.5847 284.444 55.5781 283.784 54.7454C283.125 53.9127 282.237 53.2901 281.23 52.9534C280.223 52.6168 279.139 52.5807 278.111 52.8496C277.084 53.1185 276.157 53.6808 275.444 54.4677C275.276 54.6475 275.124 54.8418 274.99 55.0483C274.246 56.1145 273.911 57.4135 274.047 58.7068L275.123 87.5334L275.661 102.016L276.351 120.49C276.152 120.762 275.972 121.046 275.813 121.343C275.382 122.158 275.123 123.053 275.049 123.971C274.975 124.89 275.089 125.815 275.383 126.688C275.69 127.605 276.188 128.445 276.844 129.155C277.5 129.865 278.298 130.428 279.187 130.807C280.076 131.185 281.035 131.371 282.001 131.353C282.968 131.334 283.919 131.111 284.792 130.698C285.807 130.218 286.688 129.496 287.357 128.595C288.026 127.694 288.463 126.642 288.63 125.532C288.796 124.422 288.686 123.288 288.31 122.23C287.934 121.173 287.303 120.224 286.474 119.468Z" fill="#FFB8B8"/>
<path d="M327.957 70.033L323.681 58.4528L316.764 39.6946C316.264 38.3298 315.464 37.0949 314.423 36.0816C313.381 35.0682 312.125 34.3024 310.747 33.841C310.638 33.8048 310.523 33.7685 310.414 33.7382C309.079 33.333 307.672 33.2216 306.29 33.4116C304.908 33.6016 303.584 34.0884 302.408 34.8388L279.108 49.6179C276.974 50.9683 275.449 53.0953 274.854 55.5495C274.26 58.0038 274.642 60.593 275.921 62.7704C278.835 67.8087 282.01 72.6913 285.433 77.3983C288.149 81.0931 293.204 81.4862 294.081 87.5333H311.261L328.652 71.9197L327.957 70.033Z" fill="#CCCCCC"/>
<path d="M61.1754 211.561C68.9141 211.561 75.1875 205.287 75.1875 197.548C75.1875 189.81 68.9141 183.536 61.1754 183.536C53.4367 183.536 47.1632 189.81 47.1632 197.548C47.1632 205.287 53.4367 211.561 61.1754 211.561Z" fill="#A0616A"/>
<path d="M95.5754 187.903C95.7135 188.013 95.8473 188.13 95.9769 188.253C96.6206 188.859 97.1289 189.595 97.4685 190.411C97.8081 191.228 97.9714 192.107 97.9476 192.991C97.9238 193.875 97.7134 194.744 97.3303 195.541C96.9473 196.338 96.4001 197.045 95.7247 197.616C95.5672 197.748 95.403 197.872 95.2326 197.987L96.1809 230.003C96.2079 231.051 95.8962 232.08 95.2922 232.937C94.6882 233.794 93.8239 234.433 92.8278 234.76L92.77 234.773L66.7742 237.541C66.0675 237.616 65.3529 237.551 64.6716 237.348C63.9903 237.146 63.356 236.81 62.8051 236.361C62.2542 235.912 61.7978 235.358 61.4621 234.732C61.1264 234.105 60.9182 233.418 60.8494 232.711C60.7806 232.004 60.8527 231.29 61.0614 230.61C61.2701 229.931 61.6113 229.299 62.0653 228.753C62.5194 228.206 63.0773 227.754 63.7067 227.424C64.3362 227.094 65.0248 226.892 65.7328 226.83L84.2638 225.198L87.4685 197.471C87.2589 197.286 87.0625 197.086 86.881 196.873C85.8762 195.683 85.3492 194.163 85.4023 192.607C85.4555 191.051 86.085 189.571 87.1686 188.453C88.2522 187.335 89.7125 186.66 91.2661 186.558C92.8196 186.457 94.3555 186.936 95.5754 187.903Z" fill="#A0616A"/>
<path d="M84.2532 392.563H91.2479L94.575 365.585H84.252L84.2532 392.563Z" fill="#A0616A"/>
<path d="M82.4694 390.279L96.2435 390.279C97.3963 390.279 98.5383 390.506 99.6033 390.947C100.668 391.388 101.636 392.035 102.451 392.85C103.266 393.665 103.913 394.632 104.354 395.697C104.795 396.762 105.022 397.904 105.022 399.057V399.342L82.4698 399.343L82.4694 390.279Z" fill="#2F2E41"/>
<path d="M14.7344 382.892L20.744 386.47L37.4056 364.993L28.5357 359.712L14.7344 382.892Z" fill="#A0616A"/>
<path d="M14.3697 380.018L26.2049 387.064C27.1954 387.654 28.0605 388.433 28.7498 389.357C29.4392 390.281 29.9399 391.332 30.2232 392.449C30.5065 393.567 30.567 394.729 30.4012 395.87C30.2353 397.01 29.8464 398.107 29.2566 399.098L29.1107 399.343L9.73303 387.805L14.3697 380.018Z" fill="#2F2E41"/>
<path d="M92.8981 383.034H85.0661C84.4319 383.035 83.8199 382.801 83.3483 382.377C82.8768 381.953 82.5793 381.369 82.5133 380.738L74.6175 306.518C74.5975 306.331 74.5167 306.156 74.3874 306.019C74.2581 305.883 74.0876 305.793 73.902 305.763C73.7165 305.733 73.5264 305.765 73.3609 305.855C73.1954 305.944 73.0639 306.084 72.9865 306.256L58.7422 337.797L33.5236 378.919C33.1972 379.446 32.6919 379.838 32.1001 380.023C31.5083 380.208 30.8697 380.173 30.3012 379.926L20.2265 375.493C19.8934 375.347 19.5953 375.131 19.3519 374.86C19.1085 374.59 18.9254 374.27 18.8148 373.924C18.7042 373.577 18.6685 373.211 18.7102 372.849C18.7519 372.487 18.8699 372.139 19.0566 371.826L42.2394 333.009L49.3494 300.303C47.1132 286.119 56.6997 265.032 56.7969 264.821L56.8444 264.718L83.2506 254.397L83.383 254.559C93.7969 288.733 100.143 325.511 95.4571 380.682C95.3993 381.322 95.1052 381.918 94.6321 382.352C94.1589 382.787 93.5407 383.03 92.8981 383.034Z" fill="#2F2E41"/>
<path d="M55.7806 268.173L55.6576 267.915C55.5988 267.791 49.7272 255.407 45.2009 242.171C44.331 239.612 44.0022 236.9 44.2352 234.206C44.4682 231.513 45.258 228.898 46.5546 226.526C47.868 224.129 49.6649 222.031 51.8314 220.365C53.9978 218.699 56.4867 217.501 59.1402 216.848C63.7469 215.743 68.5969 216.331 72.8067 218.503C77.0165 220.675 80.3059 224.287 82.0756 228.682C85.6659 237.66 84.5216 247.243 83.4448 254.779L83.4234 254.93L83.286 254.996L55.7806 268.173Z" fill="#3F3D56"/>
<path d="M78.1648 189.633H55.9151V179.935C60.7987 177.995 65.5774 176.345 68.4662 179.935C71.0384 179.935 73.5052 180.957 75.3241 182.775C77.1429 184.594 78.1647 187.061 78.1648 189.633Z" fill="#2F2E41"/>
<path d="M54.6832 178.223C41.382 178.223 37.6589 194.896 37.6589 204.302C37.6589 209.547 40.0312 211.423 43.759 212.058L45.0755 205.037L48.1589 212.36C49.2061 212.366 50.3061 212.345 51.4466 212.324L52.492 210.171L54.8234 212.286C64.1606 212.299 71.7073 213.661 71.7073 204.302C71.7073 194.896 68.4422 178.223 54.6832 178.223Z" fill="#2F2E41"/>
<path d="M116.709 400H0.604711C0.444332 400 0.290521 399.936 0.177115 399.823C0.06371 399.709 0 399.556 0 399.395C0 399.235 0.06371 399.081 0.177115 398.968C0.290521 398.854 0.444332 398.791 0.604711 398.791H116.709C116.87 398.791 117.023 398.854 117.137 398.968C117.25 399.081 117.314 399.235 117.314 399.395C117.314 399.556 117.25 399.709 117.137 399.823C117.023 399.936 116.87 400 116.709 400Z" fill="#CCCCCC"/>
<path d="M118.892 201.05H92.8898C91.3668 201.048 89.9066 200.442 88.8296 199.366C87.7526 198.289 87.1468 196.828 87.1451 195.305V169.303C87.1468 167.78 87.7526 166.319 88.8296 165.242C89.9066 164.165 91.3668 163.56 92.8898 163.558H118.892C120.415 163.56 121.876 164.165 122.953 165.242C124.03 166.319 124.635 167.78 124.637 169.303V195.305C124.635 196.828 124.03 198.289 122.953 199.366C121.876 200.442 120.415 201.048 118.892 201.05Z" fill="white"/>
<path d="M118.892 201.05H92.8898C91.3668 201.048 89.9066 200.442 88.8296 199.366C87.7526 198.289 87.1468 196.828 87.1451 195.305V169.303C87.1468 167.78 87.7526 166.319 88.8296 165.242C89.9066 164.165 91.3668 163.56 92.8898 163.558H118.892C120.415 163.56 121.876 164.165 122.953 165.242C124.03 166.319 124.635 167.78 124.637 169.303V195.305C124.635 196.828 124.03 198.289 122.953 199.366C121.876 200.442 120.415 201.048 118.892 201.05ZM92.8898 164.767C91.6874 164.769 90.5346 165.247 89.6844 166.097C88.8341 166.947 88.3558 168.1 88.3545 169.303V195.305C88.3558 196.508 88.8341 197.661 89.6844 198.511C90.5346 199.361 91.6874 199.839 92.8898 199.841H118.892C120.095 199.839 121.248 199.361 122.098 198.511C122.948 197.661 123.426 196.508 123.428 195.305V169.303C123.426 168.1 122.948 166.947 122.098 166.097C121.248 165.247 120.095 164.769 118.892 164.767H92.8898Z" fill="#3F3D56"/>
<path d="M114.357 190.468H97.4252C96.9442 190.467 96.4831 190.276 96.143 189.936C95.8028 189.596 95.6115 189.134 95.611 188.653V175.954C95.6115 175.474 95.8028 175.012 96.143 174.672C96.4831 174.332 96.9442 174.141 97.4252 174.14H102.192C102.502 174.139 102.807 174.218 103.077 174.369C103.348 174.52 103.575 174.739 103.737 175.003L105.066 177.164H114.357C114.838 177.164 115.299 177.356 115.639 177.696C115.979 178.036 116.171 178.497 116.171 178.978V188.653C116.171 189.134 115.979 189.596 115.639 189.936C115.299 190.276 114.838 190.467 114.357 190.468Z" fill="#6C63FF"/>
<path d="M113.806 196.883C113.891 197.038 113.969 197.197 114.041 197.361C114.399 198.17 114.582 199.045 114.578 199.929C114.574 200.813 114.383 201.687 114.018 202.492C113.653 203.298 113.122 204.017 112.46 204.603C111.798 205.189 111.019 205.629 110.175 205.893C109.979 205.953 109.779 206.004 109.578 206.043L98.0279 235.919C97.6461 236.896 96.9596 237.723 96.0704 238.278C95.1811 238.834 94.1365 239.088 93.0915 239.002L93.0335 238.991L68.0004 231.455C67.3198 231.251 66.6866 230.913 66.1372 230.462C65.5879 230.011 65.1333 229.455 64.7998 228.828C64.4663 228.2 64.2605 227.512 64.1942 226.805C64.1279 226.097 64.2024 225.383 64.4136 224.705C64.6247 224.026 64.9682 223.396 65.4242 222.85C65.8803 222.305 66.4398 221.856 67.0705 221.528C67.7012 221.2 68.3906 221.001 69.0989 220.941C69.8071 220.881 70.5202 220.962 71.197 221.18L88.9092 226.866L102.622 202.556C102.501 202.303 102.397 202.043 102.313 201.776C101.848 200.29 101.952 198.685 102.605 197.271C103.258 195.858 104.413 194.737 105.845 194.128C107.278 193.518 108.885 193.462 110.357 193.971C111.828 194.481 113.057 195.518 113.806 196.883Z" fill="#A0616A"/>
</g>
<defs>
<clipPath id="clip0_1_2">
<rect width="529.891" height="400" fill="white"/>
</clipPath>
</defs>
</svg>
