<svg width="1902" height="297" viewBox="0 0 1902 297" fill="none" xmlns="http://www.w3.org/2000/svg">
<path d="M0 0H1902V297H0V0Z" fill="white"/>
<path d="M1037.56 23.433C1041.84 30.107 1032.77 31.9974 1022.38 35.5746C1011.99 39.1517 1004.22 43.0611 999.936 36.3871C995.656 29.7131 992.183 16.4664 1006.88 11.4059C1022.08 6.17103 1033.28 16.759 1037.56 23.433Z" fill="#2F2E41"/>
<path d="M1016.36 36.5581C1024.09 36.5581 1030.35 31.9698 1030.35 26.31C1030.35 20.6501 1024.09 16.0619 1016.36 16.0619C1008.64 16.0619 1002.38 20.6501 1002.38 26.31C1002.38 31.9698 1008.64 36.5581 1016.36 36.5581Z" fill="#FFB8B8"/>
<path d="M1085.65 71.7582C1085.17 71.2951 1084.69 70.8403 1084.2 70.398C1083.56 69.8222 1082.93 69.2645 1082.29 68.7248C1075.04 62.5954 1067.33 58.7358 1058.84 58.3228H1058.83L1058.7 58.3144L1036.03 74.5038L1036.16 74.7291L1039.26 80.3912H1093.64C1091.19 77.4117 1088.52 74.53 1085.65 71.7582Z" fill="#2F2E41"/>
<path d="M1001.15 30.4358L1006.16 28.712L1005.46 23.4199L1008.81 27.7994L1011.2 26.9755L1010.8 23.8884L1012.75 26.4431L1030.53 20.321C1028.86 17.717 1025.85 15.7057 1022.15 14.7296C1018.46 13.7535 1014.39 13.8926 1010.83 15.1163L1008.26 16.0035C1004.7 17.2272 1001.96 19.4352 1000.62 22.1417C999.293 24.8483 999.483 27.8318 1001.15 30.4358Z" fill="#2F2E41"/>
<path d="M1117.03 216.456H824.991C822.499 216.454 820.111 215.728 818.35 214.437C816.588 213.146 815.597 211.396 815.594 209.571V80.9937C815.597 79.6565 816.322 78.3744 817.613 77.4288C818.903 76.4832 820.653 75.9513 822.478 75.9498H1119.42C1121.28 75.9513 1123.06 76.4924 1124.37 77.4544C1125.69 78.4163 1126.42 79.7205 1126.43 81.0809V209.571C1126.42 211.396 1125.43 213.146 1123.67 214.437C1121.91 215.728 1119.52 216.454 1117.03 216.456Z" fill="#F2F2F2"/>
<path d="M834.102 209.571H1107.92C1110.34 209.571 1112.65 208.868 1114.36 207.616C1116.07 206.364 1117.03 204.666 1117.03 202.895V93.764C1117.03 91.9935 1116.07 90.2954 1114.36 89.0434C1112.65 87.7914 1110.34 87.088 1107.92 87.088H834.102C831.685 87.088 829.368 87.7914 827.659 89.0434C825.95 90.2954 824.991 91.9935 824.991 93.764V202.895C824.991 204.666 825.95 206.364 827.659 207.616C829.368 208.868 831.685 209.571 834.102 209.571Z" fill="white"/>
<path d="M1126.3 80.5999H815.463V77.0948C815.466 75.2635 816.461 73.5079 818.229 72.2134C819.997 70.9188 822.393 70.1909 824.893 70.1894H1116.87C1119.37 70.1909 1121.76 70.9188 1123.53 72.2133C1125.3 73.5079 1126.29 75.2634 1126.3 77.0948V80.5999Z" fill="#6C63FF"/>
<path d="M832.601 77.1923C833.948 77.1923 835.04 76.3921 835.04 75.405C835.04 74.4179 833.948 73.6178 832.601 73.6178C831.253 73.6178 830.161 74.4179 830.161 75.405C830.161 76.3921 831.253 77.1923 832.601 77.1923Z" fill="white"/>
<path d="M841.859 77.1923C843.207 77.1923 844.299 76.3921 844.299 75.405C844.299 74.4179 843.207 73.6178 841.859 73.6178C840.512 73.6178 839.42 74.4179 839.42 75.405C839.42 76.3921 840.512 77.1923 841.859 77.1923Z" fill="white"/>
<path d="M851.118 77.1923C852.465 77.1923 853.557 76.3921 853.557 75.405C853.557 74.4179 852.465 73.6178 851.118 73.6178C849.771 73.6178 848.679 74.4179 848.679 75.405C848.679 76.3921 849.771 77.1923 851.118 77.1923Z" fill="white"/>
<path d="M979.554 185.904H955.068C953.633 185.903 952.258 185.485 951.244 184.742C950.23 183.999 949.659 182.991 949.658 181.94V163.999C949.659 162.948 950.23 161.94 951.244 161.197C952.258 160.454 953.633 160.036 955.068 160.035H979.554C980.989 160.036 982.364 160.454 983.378 161.197C984.392 161.94 984.963 162.948 984.964 163.999V181.94C984.963 182.991 984.392 183.999 983.378 184.742C982.364 185.485 980.989 185.903 979.554 185.904ZM955.068 160.869C953.935 160.87 952.85 161.2 952.049 161.787C951.248 162.373 950.798 163.169 950.797 163.999V181.94C950.798 182.77 951.248 183.565 952.049 184.152C952.85 184.739 953.935 185.069 955.068 185.07H979.554C980.687 185.069 981.772 184.739 982.573 184.152C983.374 183.565 983.824 182.77 983.825 181.94V163.999C983.824 163.169 983.374 162.373 982.573 161.787C981.772 161.2 980.687 160.87 979.554 160.869H955.068Z" fill="#CCCCCC"/>
<path d="M974.714 180.897H959.908C959.455 180.897 959.021 180.765 958.701 180.53C958.38 180.295 958.2 179.977 958.2 179.645V166.293C958.2 165.962 958.38 165.643 958.701 165.409C959.021 165.174 959.455 165.042 959.908 165.042H970.636C971.025 165.042 971.403 165.139 971.707 165.318L975.784 167.719C975.984 167.835 976.145 167.984 976.255 168.153C976.366 168.322 976.423 168.507 976.422 168.694V179.645C976.422 179.977 976.242 180.295 975.921 180.53C975.601 180.765 975.167 180.897 974.714 180.897ZM959.908 165.876C959.757 165.876 959.612 165.92 959.506 165.999C959.399 166.077 959.339 166.183 959.339 166.293V179.645C959.339 179.756 959.399 179.862 959.506 179.94C959.612 180.019 959.757 180.063 959.908 180.063H974.714C974.865 180.063 975.01 180.019 975.116 179.94C975.223 179.862 975.283 179.756 975.283 179.645V168.694C975.284 168.632 975.265 168.57 975.228 168.514C975.191 168.458 975.137 168.408 975.071 168.369L970.993 165.968C970.892 165.909 970.766 165.876 970.636 165.876H959.908Z" fill="#CCCCCC"/>
<path d="M971.867 170.883H962.755C962.604 170.883 962.46 170.839 962.353 170.761C962.246 170.683 962.186 170.577 962.186 170.466C962.186 170.355 962.246 170.249 962.353 170.171C962.46 170.093 962.604 170.049 962.755 170.049H971.867C972.018 170.049 972.163 170.093 972.269 170.171C972.376 170.249 972.436 170.355 972.436 170.466C972.436 170.577 972.376 170.683 972.269 170.761C972.163 170.839 972.018 170.883 971.867 170.883Z" fill="#CCCCCC"/>
<path d="M971.867 173.387H962.755C962.604 173.387 962.46 173.343 962.353 173.264C962.246 173.186 962.186 173.08 962.186 172.969C962.186 172.859 962.246 172.753 962.353 172.674C962.46 172.596 962.604 172.552 962.755 172.552H971.867C972.018 172.552 972.163 172.596 972.269 172.674C972.376 172.753 972.436 172.859 972.436 172.969C972.436 173.08 972.376 173.186 972.269 173.264C972.163 173.343 972.018 173.387 971.867 173.387Z" fill="#CCCCCC"/>
<path d="M971.867 175.89H962.755C962.604 175.89 962.46 175.846 962.353 175.768C962.246 175.69 962.186 175.584 962.186 175.473C962.186 175.362 962.246 175.256 962.353 175.178C962.46 175.1 962.604 175.056 962.755 175.056H971.867C972.018 175.056 972.163 175.1 972.269 175.178C972.376 175.256 972.436 175.362 972.436 175.473C972.436 175.584 972.376 175.69 972.269 175.768C972.163 175.846 972.018 175.89 971.867 175.89Z" fill="#CCCCCC"/>
<path d="M1037.64 185.904H1013.15C1011.72 185.903 1010.34 185.485 1009.33 184.742C1008.31 183.999 1007.74 182.991 1007.74 181.94V163.999C1007.74 162.948 1008.31 161.94 1009.33 161.197C1010.34 160.454 1011.72 160.036 1013.15 160.035H1037.64C1039.07 160.036 1040.45 160.454 1041.46 161.197C1042.48 161.94 1043.05 162.948 1043.05 163.999V181.94C1043.05 182.991 1042.48 183.999 1041.46 184.742C1040.45 185.485 1039.07 185.903 1037.64 185.904ZM1013.15 160.869C1012.02 160.87 1010.93 161.2 1010.13 161.787C1009.33 162.373 1008.88 163.169 1008.88 163.999V181.94C1008.88 182.77 1009.33 183.565 1010.13 184.152C1010.93 184.739 1012.02 185.069 1013.15 185.07H1037.64C1038.77 185.069 1039.86 184.739 1040.66 184.152C1041.46 183.565 1041.91 182.77 1041.91 181.94V163.999C1041.91 163.169 1041.46 162.373 1040.66 161.787C1039.86 161.2 1038.77 160.87 1037.64 160.869H1013.15Z" fill="#CCCCCC"/>
<path d="M1033.37 177.559H1017.42C1016.97 177.559 1016.54 177.427 1016.22 177.192C1015.9 176.957 1015.72 176.639 1015.71 176.307V169.631C1015.72 169.3 1015.9 168.981 1016.22 168.747C1016.54 168.512 1016.97 168.38 1017.42 168.38H1033.37C1033.82 168.38 1034.26 168.512 1034.58 168.747C1034.9 168.981 1035.08 169.3 1035.08 169.631V176.307C1035.08 176.639 1034.9 176.957 1034.58 177.192C1034.26 177.427 1033.82 177.559 1033.37 177.559ZM1017.42 169.214C1017.27 169.214 1017.13 169.258 1017.02 169.336C1016.91 169.415 1016.85 169.521 1016.85 169.631V176.307C1016.85 176.418 1016.91 176.524 1017.02 176.602C1017.13 176.681 1017.27 176.725 1017.42 176.725H1033.37C1033.52 176.725 1033.66 176.681 1033.77 176.602C1033.88 176.524 1033.94 176.418 1033.94 176.307V169.631C1033.94 169.521 1033.88 169.415 1033.77 169.336C1033.66 169.258 1033.52 169.214 1033.37 169.214H1017.42Z" fill="#CCCCCC"/>
<path d="M1025.4 174.07C1025.08 174.071 1024.76 174.005 1024.49 173.881L1015.98 169.985C1015.85 169.926 1015.76 169.833 1015.73 169.725C1015.7 169.617 1015.72 169.504 1015.8 169.411C1015.88 169.317 1016.01 169.25 1016.16 169.225C1016.3 169.2 1016.46 169.219 1016.59 169.277L1025.09 173.174C1025.18 173.215 1025.29 173.236 1025.4 173.236C1025.5 173.236 1025.61 173.215 1025.7 173.174L1034.21 169.277C1034.33 169.219 1034.49 169.2 1034.63 169.225C1034.78 169.25 1034.91 169.317 1034.99 169.411C1035.07 169.504 1035.1 169.617 1035.06 169.725C1035.03 169.833 1034.94 169.926 1034.81 169.985L1026.3 173.881C1026.03 174.005 1025.72 174.071 1025.4 174.07Z" fill="#CCCCCC"/>
<path d="M921.47 185.904H896.983C895.549 185.903 894.174 185.485 893.159 184.742C892.145 183.999 891.575 182.991 891.573 181.94V163.999C891.575 162.948 892.145 161.94 893.159 161.197C894.174 160.454 895.549 160.036 896.983 160.035H921.47C922.904 160.036 924.279 160.454 925.293 161.197C926.307 161.94 926.878 162.948 926.88 163.999V181.94C926.878 182.991 926.307 183.999 925.293 184.742C924.279 185.485 922.904 185.903 921.47 185.904ZM896.983 160.869C895.851 160.87 894.765 161.2 893.964 161.787C893.164 162.373 892.713 163.169 892.712 163.999V181.94C892.713 182.77 893.164 183.565 893.964 184.152C894.765 184.739 895.851 185.069 896.983 185.07H921.47C922.602 185.069 923.688 184.739 924.488 184.152C925.289 183.565 925.739 182.77 925.741 181.94V163.999C925.739 163.169 925.289 162.373 924.488 161.787C923.688 161.2 922.602 160.87 921.47 160.869H896.983Z" fill="#CCCCCC"/>
<path d="M917.199 177.559H901.254C900.801 177.559 900.367 177.427 900.046 177.192C899.726 176.957 899.546 176.639 899.546 176.307V169.631C899.546 169.3 899.726 168.981 900.046 168.747C900.367 168.512 900.801 168.38 901.254 168.38H917.199C917.652 168.38 918.086 168.512 918.406 168.747C918.726 168.981 918.907 169.3 918.907 169.631V176.307C918.907 176.639 918.726 176.957 918.406 177.192C918.086 177.427 917.652 177.559 917.199 177.559ZM901.254 169.214C901.103 169.214 900.958 169.258 900.851 169.336C900.745 169.415 900.685 169.521 900.684 169.631V176.307C900.685 176.418 900.745 176.524 900.851 176.602C900.958 176.681 901.103 176.725 901.254 176.725H917.199C917.35 176.725 917.494 176.681 917.601 176.602C917.708 176.524 917.768 176.418 917.768 176.307V169.631C917.768 169.521 917.708 169.415 917.601 169.336C917.494 169.258 917.35 169.214 917.199 169.214H901.254Z" fill="#CCCCCC"/>
<path d="M914.671 177.559H903.212C903.012 177.559 902.815 177.521 902.642 177.447C902.469 177.374 902.325 177.269 902.225 177.142C902.125 177.015 902.073 176.871 902.073 176.725C902.073 176.578 902.125 176.434 902.225 176.307L905.677 171.926C905.777 171.799 905.921 171.694 906.094 171.621C906.267 171.548 906.464 171.509 906.664 171.509C906.864 171.509 907.06 171.548 907.233 171.621C907.406 171.694 907.55 171.799 907.65 171.926L909.879 174.756L911.171 173.117C911.271 172.99 911.415 172.884 911.588 172.811C911.761 172.738 911.957 172.699 912.157 172.699C912.357 172.699 912.554 172.738 912.727 172.811C912.9 172.884 913.044 172.99 913.144 173.117L915.658 176.307C915.758 176.434 915.811 176.578 915.811 176.725C915.811 176.871 915.758 177.015 915.658 177.142C915.558 177.269 915.414 177.374 915.241 177.447C915.068 177.521 914.871 177.559 914.671 177.559ZM914.671 176.725L912.157 173.534L910.373 175.799C910.323 175.862 910.251 175.915 910.164 175.952C910.078 175.988 909.979 176.008 909.88 176.008C909.78 176.008 909.681 175.988 909.595 175.952C909.508 175.915 909.436 175.862 909.386 175.799L906.664 172.344L903.212 176.725H914.671Z" fill="#CCCCCC"/>
<path d="M915.49 171.718C916.119 171.718 916.629 171.344 916.629 170.883C916.629 170.422 916.119 170.049 915.49 170.049C914.861 170.049 914.351 170.422 914.351 170.883C914.351 171.344 914.861 171.718 915.49 171.718Z" fill="#CCCCCC"/>
<path d="M1187.81 280.441L1180.83 280.441L1177.51 260.71L1187.81 260.71L1187.81 280.441Z" fill="#FFB8B8"/>
<path d="M1189.59 285.4L1167.08 285.399V285.19C1167.08 284.347 1167.31 283.512 1167.75 282.734C1168.19 281.955 1168.84 281.247 1169.65 280.651C1170.46 280.055 1171.43 279.582 1172.49 279.259C1173.55 278.936 1174.69 278.77 1175.84 278.77L1189.59 278.771L1189.59 285.4Z" fill="#2F2E41"/>
<path d="M1216.29 280.441L1209.3 280.441L1205.98 260.71L1216.29 260.71L1216.29 280.441Z" fill="#FFB8B8"/>
<path d="M1218.07 285.4L1195.56 285.399V285.19C1195.56 284.347 1195.78 283.512 1196.22 282.734C1196.66 281.955 1197.31 281.247 1198.12 280.651C1198.94 280.055 1199.9 279.582 1200.96 279.259C1202.03 278.936 1203.17 278.77 1204.32 278.77L1218.07 278.771L1218.07 285.4Z" fill="#2F2E41"/>
<path d="M1214.19 271.888L1207.73 270.446C1207.25 270.339 1206.82 270.131 1206.5 269.846C1206.18 269.562 1205.98 269.214 1205.92 268.847L1199.9 226.986C1199.89 226.935 1199.86 226.888 1199.81 226.853C1199.76 226.819 1199.69 226.799 1199.62 226.799C1199.56 226.794 1199.49 226.809 1199.43 226.841C1199.38 226.873 1199.34 226.919 1199.33 226.97L1189.24 267.526C1189.18 267.772 1189.05 268.007 1188.86 268.216C1188.67 268.426 1188.43 268.606 1188.15 268.746C1187.87 268.886 1187.55 268.983 1187.21 269.031C1186.88 269.08 1186.53 269.079 1186.2 269.028L1177.93 267.781C1177.33 267.688 1176.79 267.438 1176.41 267.077C1176.04 266.716 1175.86 266.268 1175.9 265.815L1182.04 199.342L1223.69 196.049L1217.5 270.206C1217.46 270.682 1217.17 271.13 1216.7 271.458C1216.22 271.785 1215.6 271.968 1214.94 271.969C1214.69 271.969 1214.44 271.942 1214.19 271.888Z" fill="#2F2E41"/>
<path d="M1214.15 141.454C1221.88 141.454 1228.14 136.866 1228.14 131.206C1228.14 125.546 1221.88 120.958 1214.15 120.958C1206.43 120.958 1200.17 125.546 1200.17 131.206C1200.17 136.866 1206.43 141.454 1214.15 141.454Z" fill="#FFB8B8"/>
<path d="M1181.97 199.732L1191 158.069C1191.48 155.854 1192.6 153.739 1194.28 151.865C1195.97 149.992 1198.17 148.402 1200.76 147.202C1203.35 146.002 1206.25 145.219 1209.28 144.906C1212.31 144.593 1215.4 144.756 1218.34 145.385C1223.48 146.474 1227.88 148.927 1230.68 152.265C1233.48 155.603 1234.48 159.586 1233.49 163.436L1224.04 200.643L1181.97 199.732Z" fill="#6C63FF"/>
<path d="M1218.02 207.187C1218.71 206.849 1219.3 206.403 1219.74 205.88C1220.18 205.357 1220.45 204.77 1220.55 204.161C1220.64 203.551 1220.56 202.934 1220.29 202.352C1220.02 201.771 1219.59 201.239 1219.01 200.794L1228.35 187.546L1217.83 188.368L1210.58 200.823C1209.62 201.583 1209.08 202.572 1209.06 203.605C1209.03 204.638 1209.52 205.641 1210.44 206.425C1211.36 207.21 1212.63 207.721 1214.03 207.861C1215.43 208.001 1216.84 207.761 1218.02 207.187Z" fill="#FFB8B8"/>
<path d="M1220.01 198.458C1219.5 198.404 1219.02 198.237 1218.63 197.977L1215.06 195.559C1214.67 195.296 1214.41 194.953 1214.3 194.576C1214.19 194.199 1214.24 193.806 1214.44 193.45L1221.58 181.05L1220.57 156.549C1220.71 155.761 1221.07 155.003 1221.61 154.316C1222.16 153.629 1222.88 153.028 1223.75 152.547C1224.61 152.066 1225.6 151.714 1226.64 151.512C1227.69 151.309 1228.79 151.26 1229.86 151.368C1230.94 151.475 1231.97 151.737 1232.91 152.138C1233.85 152.538 1234.67 153.07 1235.32 153.704C1235.98 154.337 1236.46 155.058 1236.73 155.827C1237.01 156.596 1237.07 157.397 1236.92 158.184L1238.66 173.586C1239.18 178.26 1237.37 182.916 1233.57 186.686L1222.43 197.715C1222.22 197.927 1221.95 198.104 1221.63 198.233C1221.32 198.363 1220.97 198.443 1220.61 198.468C1220.41 198.482 1220.21 198.478 1220.01 198.458Z" fill="#6C63FF"/>
<path d="M1133.61 125.622C1133.76 126.225 1134.09 126.797 1134.58 127.296C1135.07 127.795 1135.7 128.21 1136.43 128.512C1137.15 128.814 1137.96 128.994 1138.8 129.042C1139.63 129.089 1140.47 129.002 1141.26 128.786L1154.27 140.251L1157.33 132.836L1144.51 123.085C1143.93 122.145 1142.89 121.393 1141.61 120.973C1140.32 120.553 1138.86 120.494 1137.52 120.807C1136.18 121.12 1135.04 121.783 1134.32 122.67C1133.6 123.558 1133.34 124.608 1133.61 125.622Z" fill="#FFB8B8"/>
<path d="M1143.8 130.375C1144.07 130.047 1144.47 129.787 1144.94 129.63L1149.38 128.162C1149.86 128.004 1150.39 127.958 1150.91 128.03C1151.43 128.102 1151.9 128.289 1152.27 128.565L1165.07 138.217L1196.26 147.086C1197.19 147.491 1198 148.028 1198.66 148.664C1199.31 149.3 1199.78 150.024 1200.05 150.794C1200.31 151.564 1200.37 152.366 1200.22 153.153C1200.06 153.939 1199.7 154.696 1199.14 155.379C1198.59 156.063 1197.86 156.66 1196.99 157.135C1196.12 157.611 1195.13 157.957 1194.08 158.153C1193.03 158.348 1191.93 158.39 1190.86 158.276C1189.79 158.162 1188.76 157.893 1187.82 157.487L1167.79 152.65C1161.71 151.183 1156.57 148.147 1153.31 144.108L1143.79 132.296C1143.61 132.068 1143.49 131.816 1143.45 131.553C1143.41 131.291 1143.45 131.026 1143.56 130.774C1143.62 130.635 1143.7 130.5 1143.8 130.375Z" fill="#6C63FF"/>
<path d="M1225.5 166.741L1224.93 180.093L1214.44 193.45L1223.2 178.565L1225.5 166.741Z" fill="black"/>
<path d="M1212.55 133.132C1211.67 133.215 1210.78 133.063 1210.05 132.702C1209.31 132.341 1208.78 131.797 1208.55 131.17C1208.33 130.448 1207.84 129.785 1207.14 129.25C1206.45 128.715 1205.56 128.33 1204.59 128.135C1202.02 127.705 1198.89 128.59 1197.01 127.166C1196.61 126.841 1196.31 126.45 1196.16 126.026C1196 125.602 1195.99 125.158 1196.11 124.728C1196.46 123.344 1197.81 122.298 1199.28 121.462C1202.37 119.71 1206.12 118.685 1210.02 118.52C1212.04 118.477 1214.07 118.551 1216.07 118.741C1218.17 118.838 1220.25 119.116 1222.26 119.569C1224.55 120.202 1226.58 121.249 1228.18 122.611C1229.77 123.973 1230.87 125.608 1231.37 127.363C1231.83 129.124 1231.76 130.938 1231.16 132.677C1230.57 134.416 1229.46 136.039 1227.92 137.432C1226.08 139.114 1223.7 140.44 1221 141.295C1220.35 141.518 1219.61 141.545 1218.94 141.371C1217.26 140.881 1217.53 139.352 1218.3 138.333C1219.12 137.242 1220.39 136.185 1219.73 134.858C1219.39 134.242 1218.76 133.74 1217.95 133.453C1216.27 132.828 1214.4 132.976 1212.6 133.128L1212.55 133.132Z" fill="#2F2E41"/>
<path d="M1128.94 138.919H955.821C953.33 138.917 950.942 138.191 949.18 136.9C947.419 135.61 946.428 133.86 946.425 132.034V104.913C946.428 103.088 947.419 101.338 949.18 100.047C950.942 98.7566 953.33 98.0306 955.821 98.0285H1128.94C1131.43 98.0306 1133.82 98.7566 1135.58 100.047C1137.34 101.338 1138.33 103.088 1138.33 104.913V132.034C1138.33 133.86 1137.34 135.61 1135.58 136.9C1133.82 138.191 1131.43 138.917 1128.94 138.919Z" fill="white"/>
<path d="M1128.94 139.128H955.821C953.254 139.126 950.794 138.378 948.979 137.048C947.164 135.718 946.143 133.915 946.14 132.034V104.913C946.143 103.033 947.164 101.23 948.979 99.8998C950.794 98.57 953.254 97.822 955.821 97.8199H1128.94C1131.5 97.822 1133.96 98.57 1135.78 99.8998C1137.59 101.23 1138.61 103.033 1138.62 104.913V132.034C1138.61 133.915 1137.59 135.718 1135.78 137.048C1133.96 138.378 1131.5 139.126 1128.94 139.128ZM955.821 98.6544C953.556 98.6563 951.385 99.3163 949.784 100.49C948.182 101.663 947.282 103.254 947.279 104.913V132.034C947.282 133.694 948.182 135.285 949.784 136.458C951.385 137.631 953.556 138.291 955.821 138.293H1128.94C1131.2 138.291 1133.37 137.631 1134.97 136.458C1136.57 135.285 1137.48 133.694 1137.48 132.034V104.913C1137.48 103.254 1136.57 101.663 1134.97 100.49C1133.37 99.3163 1131.2 98.6563 1128.94 98.6544H955.821Z" fill="#3F3D56"/>
<path d="M1107.87 132.243H976.891C974.4 132.241 972.012 131.515 970.25 130.224C968.489 128.934 967.498 127.184 967.495 125.358V111.172C967.498 109.347 968.489 107.597 970.25 106.306C972.012 105.015 974.4 104.289 976.891 104.287H1107.87C1110.36 104.289 1112.75 105.015 1114.51 106.306C1116.27 107.597 1117.26 109.347 1117.26 111.172V125.358C1117.26 127.184 1116.27 128.934 1114.51 130.224C1112.75 131.515 1110.36 132.241 1107.87 132.243Z" fill="#F2F2F2"/>
<path d="M1005.08 124.597C1011.28 124.597 1016.31 120.911 1016.31 116.363C1016.31 111.816 1011.28 108.13 1005.08 108.13C998.87 108.13 993.84 111.816 993.84 116.363C993.84 120.911 998.87 124.597 1005.08 124.597Z" fill="#FF6584"/>
<path d="M1099.73 131.412L1068.28 112.087C1067.87 111.834 1067.35 111.696 1066.81 111.697C1066.27 111.697 1065.75 111.837 1065.34 112.091L1046.01 124.064L1022.9 109.862C1022.49 109.609 1021.97 109.471 1021.43 109.471C1020.9 109.472 1020.38 109.612 1019.97 109.866L985.029 131.505C984.939 131.56 984.875 131.634 984.846 131.717C984.816 131.8 984.821 131.887 984.861 131.967C984.902 132.048 984.975 132.117 985.071 132.166C985.166 132.215 985.28 132.241 985.397 132.241L1032.92 132.174L1032.81 132.243L1099.36 132.149C1099.48 132.149 1099.59 132.123 1099.69 132.073C1099.78 132.024 1099.86 131.955 1099.9 131.874C1099.94 131.794 1099.94 131.706 1099.91 131.624C1099.88 131.541 1099.82 131.467 1099.73 131.412Z" fill="#3F3D56"/>
<path d="M1248.43 286H1139.09C1138.94 286 1138.8 285.956 1138.69 285.878C1138.59 285.8 1138.53 285.693 1138.53 285.583C1138.53 285.472 1138.59 285.366 1138.69 285.288C1138.8 285.209 1138.94 285.165 1139.09 285.165H1248.43C1248.58 285.165 1248.73 285.209 1248.83 285.288C1248.94 285.366 1249 285.472 1249 285.583C1249 285.693 1248.94 285.8 1248.83 285.878C1248.73 285.956 1248.58 286 1248.43 286Z" fill="#CCCCCC"/>
<path d="M1093.98 65.0405C1093.53 64.499 1092.93 64.031 1092.22 63.6651C1091.51 63.2993 1090.71 63.0432 1089.86 62.9125C1089.54 62.8646 1089.23 62.8353 1088.91 62.8249L1045.52 34.4018C1044.67 33.7599 1043.53 33.362 1042.32 33.2794C1042.08 33.2592 1041.84 33.2536 1041.59 33.2627C1040.59 33.296 1039.63 33.5423 1038.81 33.9715C1038 34.4008 1037.38 34.9942 1037.02 35.6795C1036.66 36.3647 1036.58 37.1119 1036.79 37.8298C1037 38.5477 1037.49 39.2051 1038.2 39.7217L1054.81 50.3324L1082.09 67.7526C1082.11 68.0807 1082.18 68.4064 1082.29 68.7248C1082.61 69.6473 1083.32 70.4753 1084.3 71.099C1085.28 71.7227 1086.5 72.1127 1087.79 72.2172C1088.97 72.3181 1090.17 72.1735 1091.24 71.8C1092.09 71.5087 1092.84 71.0859 1093.45 70.5607C1093.51 70.5065 1093.57 70.4564 1093.63 70.398C1094.42 69.6377 1094.88 68.7175 1094.95 67.7603C1095.01 66.8031 1094.68 65.8543 1093.98 65.0405Z" fill="#FFB8B8"/>
<path d="M1019.77 92.433L1018.79 63.4049L1018.33 49.7733C1018.24 49.0435 1017.86 48.3489 1017.24 47.7743C1016.62 47.1998 1015.78 46.7701 1014.84 46.5378C1013.89 46.3056 1012.87 46.2807 1011.9 46.4662C1010.93 46.6518 1010.06 47.0397 1009.39 47.5827C1009.23 47.7068 1009.08 47.8408 1008.96 47.9833C1008.26 48.719 1007.94 49.6153 1008.07 50.5077L1010.24 93.1382C1010.05 93.3255 1009.88 93.5221 1009.73 93.7265C1009.33 94.2891 1009.08 94.9062 1009.01 95.5403C1008.94 96.1744 1009.05 96.8122 1009.33 97.415C1009.62 98.0472 1010.09 98.6272 1010.7 99.117C1011.32 99.6068 1012.07 99.9951 1012.91 100.257C1013.75 100.518 1014.65 100.646 1015.56 100.633C1016.47 100.62 1017.37 100.466 1018.19 100.181C1019.15 99.8503 1019.97 99.352 1020.6 98.7303C1021.24 98.1086 1021.65 97.3827 1021.8 96.6168C1021.96 95.8509 1021.86 95.0685 1021.5 94.3388C1021.15 93.6091 1020.55 92.9546 1019.77 92.433Z" fill="#FFB8B8"/>
<path d="M1058.84 58.3228L1054.81 50.3324L1048.3 37.3893C1047.83 36.4476 1047.07 35.5955 1046.09 34.8963C1045.11 34.1971 1043.93 33.6687 1042.63 33.3503C1042.53 33.3253 1042.42 33.3003 1042.32 33.2794C1041.06 32.9998 1039.74 32.9229 1038.43 33.054C1037.13 33.1851 1035.89 33.521 1034.78 34.0388L1012.84 44.2364C1010.83 45.1681 1009.39 46.6358 1008.83 48.3292C1008.27 50.0226 1008.63 51.8092 1009.84 53.3116C1012.58 56.788 1015.57 60.1571 1018.79 63.4049C1021.35 65.9543 1026.11 66.2255 1026.94 70.398H1043.11L1059.49 59.6246L1058.84 58.3228Z" fill="#CCCCCC"/>
<path d="M807.609 155.977C814.897 155.977 820.804 151.648 820.804 146.308C820.804 140.969 814.897 136.64 807.609 136.64C800.321 136.64 794.414 140.969 794.414 146.308C794.414 151.648 800.321 155.977 807.609 155.977Z" fill="#A0616A"/>
<path d="M840.004 139.653C840.134 139.729 840.26 139.809 840.382 139.894C840.988 140.313 841.467 140.82 841.786 141.384C842.106 141.947 842.26 142.554 842.237 143.164C842.215 143.774 842.017 144.373 841.656 144.923C841.296 145.473 840.78 145.961 840.144 146.355C839.996 146.446 839.841 146.532 839.681 146.611L840.574 168.702C840.599 169.425 840.306 170.135 839.737 170.727C839.168 171.318 838.354 171.759 837.416 171.985L837.362 171.993L812.881 173.903C812.216 173.955 811.543 173.91 810.901 173.77C810.26 173.63 809.662 173.399 809.144 173.089C808.625 172.779 808.195 172.397 807.879 171.965C807.563 171.533 807.367 171.059 807.302 170.571C807.237 170.083 807.305 169.59 807.502 169.121C807.698 168.652 808.02 168.217 808.447 167.839C808.875 167.462 809.4 167.151 809.993 166.923C810.586 166.695 811.234 166.556 811.901 166.513L829.351 165.387L832.369 146.255C832.172 146.127 831.987 145.989 831.816 145.842C830.87 145.022 830.374 143.973 830.424 142.899C830.474 141.825 831.066 140.804 832.087 140.032C833.107 139.261 834.483 138.795 835.945 138.725C837.408 138.655 838.855 138.986 840.004 139.653Z" fill="#A0616A"/>
<path d="M829.341 280.868H835.928L839.062 262.254H829.34L829.341 280.868Z" fill="#A0616A"/>
<path d="M827.662 279.293L840.633 279.292C841.718 279.292 842.794 279.449 843.797 279.753C844.8 280.058 845.711 280.504 846.478 281.066C847.246 281.629 847.855 282.296 848.27 283.031C848.686 283.766 848.9 284.554 848.9 285.349V285.546L827.662 285.546L827.662 279.293Z" fill="#2F2E41"/>
<path d="M763.875 274.196L769.535 276.665L785.225 261.845L776.872 258.201L763.875 274.196Z" fill="#A0616A"/>
<path d="M763.532 272.212L774.677 277.074C775.61 277.481 776.425 278.019 777.074 278.656C777.723 279.294 778.194 280.019 778.461 280.79C778.728 281.561 778.785 282.363 778.629 283.15C778.473 283.937 778.106 284.694 777.551 285.377L777.414 285.546L759.166 277.586L763.532 272.212Z" fill="#2F2E41"/>
<path d="M837.482 274.294H830.107C829.51 274.294 828.933 274.133 828.489 273.84C828.045 273.547 827.765 273.145 827.703 272.709L820.267 221.497C820.249 221.368 820.173 221.247 820.051 221.153C819.929 221.059 819.768 220.997 819.594 220.977C819.419 220.956 819.24 220.978 819.084 221.04C818.928 221.101 818.804 221.198 818.732 221.316L805.318 243.08L781.569 271.454C781.262 271.818 780.786 272.088 780.229 272.216C779.671 272.343 779.07 272.32 778.535 272.149L769.047 269.09C768.734 268.989 768.453 268.84 768.224 268.654C767.995 268.467 767.822 268.247 767.718 268.007C767.614 267.768 767.58 267.515 767.619 267.266C767.659 267.016 767.77 266.776 767.946 266.56L789.777 239.776L796.472 217.209C794.367 207.422 803.394 192.872 803.486 192.726L803.531 192.655L828.397 185.534L828.522 185.645C838.329 209.226 844.305 234.602 839.892 272.671C839.838 273.112 839.561 273.523 839.115 273.823C838.67 274.123 838.088 274.291 837.482 274.294Z" fill="#2F2E41"/>
<path d="M802.529 195.04L802.413 194.861C802.357 194.776 796.828 186.231 792.566 177.098C791.747 175.332 791.437 173.461 791.656 171.602C791.876 169.744 792.62 167.939 793.841 166.303C795.077 164.649 796.77 163.202 798.81 162.052C800.85 160.903 803.194 160.076 805.692 159.625C810.031 158.863 814.598 159.268 818.562 160.767C822.527 162.266 825.624 164.758 827.291 167.79C830.672 173.985 829.594 180.598 828.58 185.798L828.56 185.902L802.529 195.04Z" fill="#3F3D56"/>
<path d="M823.608 140.847H802.655V134.155C807.254 132.816 811.754 131.678 814.475 134.155C816.897 134.155 819.22 134.86 820.933 136.115C822.646 137.37 823.608 139.072 823.608 140.847Z" fill="#2F2E41"/>
<path d="M801.495 132.974C788.97 132.974 785.464 144.478 785.464 150.968C785.464 154.588 787.698 155.882 791.208 156.32L792.448 151.475L795.351 156.529C796.337 156.532 797.373 156.518 798.447 156.504L799.432 155.018L801.627 156.477C810.42 156.487 817.527 157.426 817.527 150.968C817.527 144.478 814.452 132.974 801.495 132.974Z" fill="#2F2E41"/>
<path d="M859.905 286H750.569C750.418 286 750.274 285.956 750.167 285.878C750.06 285.8 750 285.693 750 285.583C750 285.472 750.06 285.366 750.167 285.288C750.274 285.209 750.418 285.165 750.569 285.165H859.905C860.056 285.165 860.201 285.209 860.308 285.288C860.415 285.366 860.475 285.472 860.475 285.583C860.475 285.693 860.415 285.8 860.308 285.878C860.201 285.956 860.056 286 859.905 286Z" fill="#CCCCCC"/>
<path d="M861.961 148.725H837.475C836.04 148.723 834.665 148.305 833.651 147.562C832.637 146.819 832.066 145.812 832.065 144.761V126.819C832.066 125.768 832.637 124.76 833.651 124.017C834.665 123.274 836.04 122.856 837.475 122.855H861.961C863.396 122.856 864.771 123.274 865.785 124.017C866.799 124.76 867.37 125.768 867.371 126.819V144.761C867.37 145.812 866.799 146.819 865.785 147.562C864.771 148.305 863.396 148.723 861.961 148.725Z" fill="white"/>
<path d="M861.961 148.725H837.475C836.04 148.723 834.665 148.305 833.651 147.562C832.637 146.819 832.066 145.812 832.065 144.761V126.819C832.066 125.768 832.637 124.76 833.651 124.017C834.665 123.274 836.04 122.856 837.475 122.855H861.961C863.396 122.856 864.771 123.274 865.785 124.017C866.799 124.76 867.37 125.768 867.371 126.819V144.761C867.37 145.812 866.799 146.819 865.785 147.562C864.771 148.305 863.396 148.723 861.961 148.725ZM837.475 123.689C836.342 123.69 835.257 124.02 834.456 124.607C833.655 125.194 833.205 125.989 833.204 126.819V144.761C833.205 145.59 833.655 146.386 834.456 146.972C835.257 147.559 836.342 147.889 837.475 147.89H861.961C863.094 147.889 864.179 147.559 864.98 146.972C865.781 146.386 866.231 145.59 866.232 144.761V126.819C866.231 125.989 865.781 125.194 864.98 124.607C864.179 124.02 863.094 123.69 861.961 123.689H837.475Z" fill="#3F3D56"/>
<path d="M857.69 141.423H841.746C841.293 141.422 840.858 141.29 840.538 141.056C840.218 140.821 840.038 140.503 840.037 140.171V131.409C840.038 131.077 840.218 130.759 840.538 130.524C840.858 130.289 841.293 130.157 841.746 130.157H846.234C846.526 130.156 846.813 130.21 847.068 130.315C847.323 130.419 847.537 130.57 847.689 130.752L848.941 132.243H857.69C858.143 132.243 858.578 132.375 858.898 132.61C859.218 132.845 859.398 133.163 859.399 133.495V140.171C859.398 140.503 859.218 140.821 858.898 141.056C858.578 141.29 858.143 141.422 857.69 141.423Z" fill="#6C63FF"/>
<path d="M857.172 145.849C857.251 145.956 857.325 146.066 857.392 146.179C857.73 146.737 857.902 147.341 857.898 147.951C857.895 148.561 857.715 149.164 857.371 149.72C857.028 150.276 856.528 150.772 855.904 151.176C855.28 151.58 854.547 151.884 853.752 152.066C853.567 152.108 853.379 152.142 853.189 152.17L842.313 172.784C841.954 173.458 841.307 174.029 840.47 174.412C839.632 174.795 838.649 174.97 837.664 174.912L837.61 174.904L814.036 169.704C813.395 169.563 812.799 169.33 812.282 169.019C811.764 168.707 811.336 168.324 811.022 167.891C810.708 167.458 810.514 166.984 810.452 166.495C810.389 166.007 810.46 165.514 810.658 165.046C810.857 164.578 811.181 164.143 811.61 163.767C812.04 163.391 812.567 163.081 813.16 162.854C813.754 162.628 814.404 162.491 815.071 162.449C815.738 162.408 816.409 162.464 817.046 162.614L833.726 166.538L846.639 149.763C846.525 149.589 846.428 149.41 846.348 149.225C845.911 148.2 846.009 147.092 846.624 146.117C847.238 145.142 848.326 144.369 849.675 143.948C851.023 143.527 852.538 143.489 853.923 143.84C855.309 144.192 856.466 144.908 857.172 145.849Z" fill="#A0616A"/>
</svg>
