<svg width="499" height="276" viewBox="0 0 499 276" fill="none" xmlns="http://www.w3.org/2000/svg">
<g clip-path="url(#clip0_1_2)">
<path d="M287.559 13.433C291.839 20.107 282.77 21.9974 272.38 25.5746C261.991 29.1517 254.216 33.0611 249.936 26.3871C245.656 19.7131 242.183 6.46644 256.88 1.4059C272.084 -3.82897 283.279 6.75899 287.559 13.433Z" fill="#2F2E41"/>
<path d="M266.362 26.5581C274.086 26.5581 280.348 21.9698 280.348 16.31C280.348 10.6501 274.086 6.06186 266.362 6.06186C258.637 6.06186 252.375 10.6501 252.375 16.31C252.375 21.9698 258.637 26.5581 266.362 26.5581Z" fill="#FFB8B8"/>
<path d="M335.654 61.7582C335.169 61.2951 334.685 60.8403 334.196 60.398C333.564 59.8222 332.928 59.2645 332.288 58.7248C325.039 52.5954 317.328 48.7358 308.838 48.3228H308.826L308.701 48.3144L291.782 60.398L286.031 64.5037L286.156 64.7291L289.26 70.3912H343.637C341.187 67.4117 338.522 64.53 335.654 61.7582Z" fill="#2F2E41"/>
<path d="M251.153 20.4358L256.159 18.712L255.462 13.4198L258.81 17.7994L261.203 16.9755L260.796 13.8884L262.749 16.4431L280.53 10.321C278.86 7.71694 275.846 5.70566 272.153 4.72958C268.459 3.75351 264.387 3.89259 260.833 5.11624L258.256 6.00352C254.702 7.22717 251.957 9.43515 250.625 12.1417C249.293 14.8483 249.483 17.8318 251.153 20.4358Z" fill="#2F2E41"/>
<path d="M367.031 206.456H74.9905C72.4994 206.454 70.1111 205.728 68.3496 204.437C66.5881 203.146 65.5973 201.396 65.5945 199.571V70.9937C65.5965 69.6565 66.3224 68.3744 67.6129 67.4288C68.9033 66.4832 70.653 65.9513 72.478 65.9498H369.424C371.281 65.9513 373.061 66.4924 374.373 67.4544C375.686 68.4163 376.425 69.7205 376.427 71.0809V199.571C376.424 201.396 375.433 203.146 373.671 204.437C371.91 205.728 369.522 206.454 367.031 206.456Z" fill="#F2F2F2"/>
<path d="M84.1019 199.571H357.919C360.336 199.571 362.653 198.868 364.362 197.616C366.071 196.364 367.031 194.666 367.031 192.895V83.7641C367.031 81.9935 366.071 80.2954 364.362 79.0434C362.653 77.7914 360.336 77.088 357.919 77.088H84.1019C81.6854 77.088 79.3679 77.7914 77.6592 79.0434C75.9505 80.2954 74.9905 81.9935 74.9905 83.7641V192.895C74.9905 194.666 75.9505 196.364 77.6592 197.616C79.3679 198.868 81.6854 199.571 84.1019 199.571Z" fill="white"/>
<path d="M376.296 70.5999H65.4626V67.0948C65.4662 65.2634 66.4611 63.5079 68.229 62.2134C69.9969 60.9188 72.3935 60.1909 74.8929 60.1894H366.866C369.365 60.1909 371.762 60.9188 373.529 62.2133C375.297 63.5079 376.292 65.2634 376.296 67.0948V70.5999Z" fill="#6C63FF"/>
<path d="M82.6007 67.1923C83.9478 67.1923 85.0399 66.3921 85.0399 65.405C85.0399 64.4179 83.9478 63.6178 82.6007 63.6178C81.2535 63.6178 80.1614 64.4179 80.1614 65.405C80.1614 66.3921 81.2535 67.1923 82.6007 67.1923Z" fill="white"/>
<path d="M91.8594 67.1923C93.2065 67.1923 94.2986 66.3921 94.2986 65.405C94.2986 64.4179 93.2065 63.6178 91.8594 63.6178C90.5122 63.6178 89.4201 64.4179 89.4201 65.405C89.4201 66.3921 90.5122 67.1923 91.8594 67.1923Z" fill="white"/>
<path d="M101.118 67.1923C102.465 67.1923 103.557 66.3921 103.557 65.405C103.557 64.4179 102.465 63.6178 101.118 63.6178C99.7709 63.6178 98.6788 64.4179 98.6788 65.405C98.6788 66.3921 99.7709 67.1923 101.118 67.1923Z" fill="white"/>
<path d="M229.554 175.904H205.068C203.633 175.903 202.258 175.485 201.244 174.742C200.23 173.999 199.659 172.991 199.658 171.94V153.999C199.659 152.948 200.23 151.94 201.244 151.197C202.258 150.454 203.633 150.036 205.068 150.035H229.554C230.989 150.036 232.364 150.454 233.378 151.197C234.392 151.94 234.963 152.948 234.964 153.999V171.94C234.963 172.991 234.392 173.999 233.378 174.742C232.364 175.485 230.989 175.903 229.554 175.904ZM205.068 150.869C203.935 150.87 202.85 151.2 202.049 151.787C201.248 152.373 200.798 153.169 200.797 153.999V171.94C200.798 172.77 201.248 173.565 202.049 174.152C202.85 174.739 203.935 175.069 205.068 175.07H229.554C230.687 175.069 231.772 174.739 232.573 174.152C233.374 173.565 233.824 172.77 233.825 171.94V153.999C233.824 153.169 233.374 152.373 232.573 151.787C231.772 151.2 230.687 150.87 229.554 150.869H205.068Z" fill="#CCCCCC"/>
<path d="M224.714 170.897H209.908C209.455 170.897 209.021 170.765 208.701 170.53C208.38 170.295 208.2 169.977 208.2 169.645V156.293C208.2 155.962 208.38 155.643 208.701 155.409C209.021 155.174 209.455 155.042 209.908 155.042H220.636C221.026 155.042 221.403 155.139 221.707 155.318L225.784 157.719C225.984 157.835 226.145 157.984 226.255 158.153C226.366 158.322 226.423 158.507 226.422 158.694V169.645C226.422 169.977 226.242 170.295 225.921 170.53C225.601 170.765 225.167 170.897 224.714 170.897ZM209.908 155.876C209.757 155.876 209.612 155.92 209.506 155.999C209.399 156.077 209.339 156.183 209.339 156.293V169.645C209.339 169.756 209.399 169.862 209.506 169.94C209.612 170.019 209.757 170.063 209.908 170.063H224.714C224.865 170.063 225.01 170.019 225.116 169.94C225.223 169.862 225.283 169.756 225.283 169.645V158.694C225.284 158.632 225.265 158.57 225.228 158.514C225.191 158.458 225.137 158.408 225.071 158.369L220.993 155.968C220.892 155.909 220.766 155.876 220.636 155.876H209.908Z" fill="#CCCCCC"/>
<path d="M221.867 160.883H212.755C212.604 160.883 212.459 160.839 212.353 160.761C212.246 160.683 212.186 160.577 212.186 160.466C212.186 160.355 212.246 160.249 212.353 160.171C212.459 160.093 212.604 160.049 212.755 160.049H221.867C222.018 160.049 222.163 160.093 222.269 160.171C222.376 160.249 222.436 160.355 222.436 160.466C222.436 160.577 222.376 160.683 222.269 160.761C222.163 160.839 222.018 160.883 221.867 160.883Z" fill="#CCCCCC"/>
<path d="M221.867 163.387H212.755C212.604 163.387 212.459 163.343 212.353 163.264C212.246 163.186 212.186 163.08 212.186 162.969C212.186 162.859 212.246 162.753 212.353 162.674C212.459 162.596 212.604 162.552 212.755 162.552H221.867C222.018 162.552 222.163 162.596 222.269 162.674C222.376 162.753 222.436 162.859 222.436 162.969C222.436 163.08 222.376 163.186 222.269 163.264C222.163 163.343 222.018 163.387 221.867 163.387Z" fill="#CCCCCC"/>
<path d="M221.867 165.89H212.755C212.604 165.89 212.459 165.846 212.353 165.768C212.246 165.69 212.186 165.584 212.186 165.473C212.186 165.362 212.246 165.256 212.353 165.178C212.459 165.1 212.604 165.056 212.755 165.056H221.867C222.018 165.056 222.163 165.1 222.269 165.178C222.376 165.256 222.436 165.362 222.436 165.473C222.436 165.584 222.376 165.69 222.269 165.768C222.163 165.846 222.018 165.89 221.867 165.89Z" fill="#CCCCCC"/>
<path d="M287.639 175.904H263.152C261.718 175.903 260.343 175.485 259.329 174.742C258.315 173.999 257.744 172.991 257.743 171.94V153.999C257.744 152.948 258.315 151.94 259.329 151.197C260.343 150.454 261.718 150.036 263.152 150.035H287.639C289.073 150.036 290.448 150.454 291.463 151.197C292.477 151.94 293.047 152.948 293.049 153.999V171.94C293.047 172.991 292.477 173.999 291.463 174.742C290.448 175.485 289.073 175.903 287.639 175.904ZM263.152 150.869C262.02 150.87 260.934 151.2 260.134 151.787C259.333 152.373 258.883 153.169 258.882 153.999V171.94C258.883 172.77 259.333 173.565 260.134 174.152C260.934 174.739 262.02 175.069 263.152 175.07H287.639C288.771 175.069 289.857 174.739 290.658 174.152C291.458 173.565 291.909 172.77 291.91 171.94V153.999C291.909 153.169 291.458 152.373 290.658 151.787C289.857 151.2 288.771 150.87 287.639 150.869H263.152Z" fill="#CCCCCC"/>
<path d="M283.368 167.559H267.423C266.97 167.559 266.536 167.427 266.216 167.192C265.896 166.957 265.715 166.639 265.715 166.307V159.631C265.715 159.3 265.896 158.981 266.216 158.747C266.536 158.512 266.97 158.38 267.423 158.38H283.368C283.821 158.38 284.255 158.512 284.576 158.747C284.896 158.981 285.076 159.3 285.077 159.631V166.307C285.076 166.639 284.896 166.957 284.576 167.192C284.255 167.427 283.821 167.559 283.368 167.559ZM267.423 159.214C267.272 159.214 267.128 159.258 267.021 159.336C266.914 159.415 266.854 159.521 266.854 159.631V166.307C266.854 166.418 266.914 166.524 267.021 166.602C267.128 166.681 267.272 166.725 267.423 166.725H283.368C283.519 166.725 283.664 166.681 283.771 166.602C283.877 166.524 283.938 166.418 283.938 166.307V159.631C283.938 159.521 283.877 159.415 283.771 159.336C283.664 159.258 283.519 159.214 283.368 159.214H267.423Z" fill="#CCCCCC"/>
<path d="M275.396 164.07C275.076 164.071 274.762 164.005 274.49 163.881L265.982 159.985C265.855 159.927 265.764 159.833 265.73 159.725C265.696 159.617 265.722 159.504 265.802 159.411C265.882 159.317 266.01 159.25 266.157 159.225C266.304 159.2 266.458 159.219 266.586 159.278L275.094 163.174C275.185 163.215 275.289 163.237 275.396 163.237C275.503 163.237 275.607 163.215 275.698 163.174L284.205 159.278C284.333 159.219 284.488 159.2 284.635 159.225C284.782 159.25 284.909 159.317 284.989 159.411C285.069 159.504 285.095 159.617 285.061 159.725C285.028 159.833 284.937 159.927 284.809 159.985L276.302 163.881C276.03 164.005 275.716 164.071 275.396 164.07Z" fill="#CCCCCC"/>
<path d="M171.47 175.904H146.983C145.549 175.903 144.174 175.485 143.159 174.742C142.145 173.999 141.575 172.991 141.573 171.94V153.999C141.575 152.948 142.145 151.94 143.159 151.197C144.174 150.454 145.549 150.036 146.983 150.035H171.47C172.904 150.036 174.279 150.454 175.293 151.197C176.307 151.94 176.878 152.948 176.88 153.999V171.94C176.878 172.991 176.307 173.999 175.293 174.742C174.279 175.485 172.904 175.903 171.47 175.904ZM146.983 150.869C145.851 150.87 144.765 151.2 143.964 151.787C143.164 152.373 142.713 153.169 142.712 153.999V171.94C142.713 172.77 143.164 173.565 143.964 174.152C144.765 174.739 145.851 175.069 146.983 175.07H171.47C172.602 175.069 173.688 174.739 174.488 174.152C175.289 173.565 175.739 172.77 175.741 171.94V153.999C175.739 153.169 175.289 152.373 174.488 151.787C173.688 151.2 172.602 150.87 171.47 150.869H146.983Z" fill="#CCCCCC"/>
<path d="M167.199 167.559H151.254C150.801 167.559 150.367 167.427 150.046 167.192C149.726 166.957 149.546 166.639 149.546 166.307V159.631C149.546 159.3 149.726 158.981 150.046 158.747C150.367 158.512 150.801 158.38 151.254 158.38H167.199C167.652 158.38 168.086 158.512 168.406 158.747C168.726 158.981 168.907 159.3 168.907 159.631V166.307C168.907 166.639 168.726 166.957 168.406 167.192C168.086 167.427 167.652 167.559 167.199 167.559ZM151.254 159.214C151.103 159.214 150.958 159.258 150.851 159.336C150.745 159.415 150.685 159.521 150.684 159.631V166.307C150.685 166.418 150.745 166.524 150.851 166.602C150.958 166.681 151.103 166.725 151.254 166.725H167.199C167.35 166.725 167.494 166.681 167.601 166.602C167.708 166.524 167.768 166.418 167.768 166.307V159.631C167.768 159.521 167.708 159.415 167.601 159.336C167.494 159.258 167.35 159.214 167.199 159.214H151.254Z" fill="#CCCCCC"/>
<path d="M164.671 167.559H153.212C153.012 167.559 152.815 167.521 152.642 167.447C152.469 167.374 152.325 167.269 152.225 167.142C152.125 167.015 152.073 166.871 152.073 166.725C152.073 166.578 152.125 166.434 152.225 166.307L155.677 161.926C155.777 161.799 155.921 161.694 156.094 161.621C156.267 161.548 156.464 161.509 156.664 161.509C156.864 161.509 157.06 161.548 157.233 161.621C157.406 161.694 157.55 161.799 157.65 161.926L159.879 164.756L161.171 163.117C161.271 162.99 161.415 162.884 161.588 162.811C161.761 162.738 161.957 162.699 162.157 162.699C162.357 162.699 162.554 162.738 162.727 162.811C162.9 162.884 163.044 162.99 163.144 163.117L165.658 166.307C165.758 166.434 165.811 166.578 165.811 166.725C165.811 166.871 165.758 167.015 165.658 167.142C165.558 167.269 165.414 167.374 165.241 167.447C165.068 167.521 164.871 167.559 164.671 167.559ZM164.671 166.725L162.157 163.534L160.373 165.799C160.323 165.862 160.251 165.915 160.164 165.952C160.078 165.988 159.979 166.008 159.879 166.008C159.78 166.008 159.681 165.988 159.595 165.952C159.508 165.915 159.436 165.862 159.386 165.799L156.664 162.344L153.212 166.725H164.671Z" fill="#CCCCCC"/>
<path d="M165.49 161.718C166.119 161.718 166.629 161.344 166.629 160.883C166.629 160.422 166.119 160.049 165.49 160.049C164.861 160.049 164.351 160.422 164.351 160.883C164.351 161.344 164.861 161.718 165.49 161.718Z" fill="#CCCCCC"/>
<path d="M437.814 270.441L430.832 270.441L427.511 250.71L437.815 250.71L437.814 270.441Z" fill="#FFB8B8"/>
<path d="M439.594 275.4L417.083 275.399V275.19C417.083 274.347 417.31 273.512 417.75 272.734C418.19 271.955 418.836 271.247 419.649 270.651C420.463 270.055 421.429 269.582 422.492 269.259C423.555 268.936 424.694 268.77 425.845 268.77H425.846L439.594 268.771L439.594 275.4Z" fill="#2F2E41"/>
<path d="M466.287 270.441L459.305 270.441L455.984 250.71L466.288 250.71L466.287 270.441Z" fill="#FFB8B8"/>
<path d="M468.067 275.4L445.556 275.399V275.19C445.556 274.347 445.783 273.512 446.223 272.734C446.663 271.955 447.309 271.247 448.122 270.651C448.936 270.055 449.902 269.582 450.965 269.259C452.028 268.936 453.167 268.77 454.318 268.77H454.318L468.067 268.771L468.067 275.4Z" fill="#2F2E41"/>
<path d="M464.194 261.888L457.728 260.446C457.246 260.339 456.818 260.13 456.497 259.846C456.176 259.562 455.977 259.214 455.925 258.847L449.897 216.986C449.892 216.935 449.861 216.888 449.811 216.853C449.76 216.819 449.693 216.799 449.624 216.799C449.555 216.794 449.486 216.809 449.432 216.841C449.377 216.873 449.342 216.919 449.334 216.97L439.236 257.526C439.175 257.772 439.047 258.007 438.861 258.216C438.674 258.426 438.432 258.606 438.149 258.746C437.866 258.886 437.548 258.983 437.213 259.031C436.878 259.08 436.533 259.079 436.199 259.028L427.935 257.781C427.329 257.688 426.789 257.438 426.414 257.077C426.04 256.716 425.855 256.268 425.895 255.815L432.037 189.342L473.686 186.049L467.497 260.206C467.457 260.682 467.171 261.13 466.696 261.458C466.222 261.785 465.595 261.968 464.944 261.969C464.689 261.969 464.437 261.942 464.194 261.888Z" fill="#2F2E41"/>
<path d="M464.154 131.454C471.879 131.454 478.141 126.866 478.141 121.206C478.141 115.546 471.879 110.958 464.154 110.958C456.43 110.958 450.168 115.546 450.168 121.206C450.168 126.866 456.43 131.454 464.154 131.454Z" fill="#FFB8B8"/>
<path d="M431.973 189.732L441.003 148.069C441.484 145.854 442.602 143.739 444.285 141.865C445.967 139.992 448.175 138.402 450.761 137.202C453.347 136.002 456.253 135.219 459.284 134.906C462.315 134.593 465.402 134.756 468.341 135.385C473.478 136.474 477.877 138.927 480.678 142.265C483.479 145.603 484.481 149.586 483.489 153.436L474.041 190.643L431.973 189.732Z" fill="#6C63FF"/>
<path d="M468.015 197.187C468.714 196.849 469.303 196.403 469.741 195.88C470.179 195.357 470.455 194.77 470.549 194.161C470.644 193.551 470.556 192.934 470.29 192.352C470.024 191.771 469.587 191.239 469.01 190.794L478.347 177.546L467.832 178.368L460.578 190.823C459.623 191.583 459.081 192.572 459.055 193.605C459.03 194.638 459.522 195.641 460.439 196.425C461.356 197.21 462.633 197.721 464.03 197.861C465.426 198.001 466.844 197.761 468.015 197.187Z" fill="#FFB8B8"/>
<path d="M470.015 188.458C469.498 188.404 469.016 188.237 468.633 187.977L465.06 185.559C464.675 185.296 464.408 184.953 464.297 184.576C464.186 184.199 464.235 183.806 464.439 183.45L471.578 171.05L470.565 146.549C470.711 145.761 471.067 145.003 471.613 144.316C472.159 143.629 472.885 143.028 473.748 142.547C474.611 142.066 475.596 141.714 476.645 141.512C477.694 141.309 478.787 141.26 479.862 141.368C480.936 141.475 481.972 141.737 482.908 142.138C483.845 142.538 484.665 143.07 485.321 143.704C485.977 144.337 486.456 145.058 486.731 145.827C487.006 146.596 487.072 147.397 486.924 148.184L488.656 163.586C489.183 168.26 487.374 172.916 483.566 176.686L472.432 187.715C472.218 187.927 471.945 188.104 471.632 188.233C471.318 188.363 470.971 188.443 470.613 188.468C470.414 188.482 470.213 188.478 470.015 188.458Z" fill="#6C63FF"/>
<path d="M383.61 115.622C383.763 116.225 384.094 116.797 384.58 117.296C385.066 117.795 385.696 118.21 386.425 118.512C387.154 118.814 387.965 118.994 388.799 119.042C389.634 119.089 390.473 119.002 391.256 118.786L404.266 130.251L407.332 122.836L394.508 113.085C393.926 112.145 392.893 111.393 391.605 110.973C390.317 110.554 388.864 110.494 387.521 110.807C386.178 111.12 385.038 111.783 384.317 112.67C383.596 113.558 383.345 114.608 383.61 115.622Z" fill="#FFB8B8"/>
<path d="M393.801 120.375C394.07 120.047 394.468 119.787 394.944 119.63L399.376 118.162C399.856 118.004 400.392 117.958 400.909 118.03C401.426 118.102 401.901 118.289 402.269 118.565L415.069 128.217L446.256 137.086C447.189 137.491 448.005 138.028 448.655 138.664C449.305 139.3 449.778 140.024 450.047 140.794C450.315 141.564 450.373 142.366 450.219 143.153C450.064 143.939 449.699 144.696 449.145 145.379C448.591 146.063 447.858 146.66 446.989 147.135C446.12 147.611 445.132 147.957 444.08 148.153C443.029 148.348 441.935 148.39 440.861 148.276C439.787 148.162 438.755 147.893 437.823 147.487L417.791 142.65C411.711 141.183 406.566 138.147 403.312 134.108L393.792 122.296C393.609 122.068 393.493 121.816 393.453 121.553C393.412 121.291 393.447 121.026 393.555 120.774C393.615 120.635 393.698 120.5 393.801 120.375Z" fill="#6C63FF"/>
<path opacity="0.1" d="M475.499 156.741L474.929 170.093L464.439 183.45L473.198 168.565L475.499 156.741Z" fill="black"/>
<path d="M462.552 123.132C461.673 123.215 460.783 123.063 460.047 122.702C459.311 122.341 458.778 121.797 458.548 121.17C458.326 120.448 457.841 119.785 457.143 119.25C456.446 118.715 455.563 118.33 454.59 118.135C452.024 117.705 448.888 118.59 447.008 117.166C446.606 116.841 446.315 116.45 446.159 116.026C446.003 115.602 445.986 115.158 446.111 114.728C446.458 113.344 447.809 112.298 449.279 111.462C452.374 109.71 456.119 108.685 460.023 108.52C462.044 108.477 464.066 108.551 466.071 108.741C468.17 108.838 470.247 109.116 472.257 109.569C474.548 110.202 476.583 111.249 478.176 112.611C479.769 113.973 480.867 115.608 481.37 117.363C481.829 119.125 481.759 120.938 481.163 122.677C480.567 124.416 479.46 126.039 477.92 127.432C476.077 129.114 473.699 130.44 470.995 131.295C470.351 131.518 469.613 131.545 468.942 131.371C467.258 130.881 467.533 129.352 468.301 128.333C469.123 127.242 470.387 126.185 469.726 124.858C469.395 124.242 468.759 123.74 467.945 123.453C466.271 122.828 464.399 122.976 462.599 123.128L462.552 123.132Z" fill="#2F2E41"/>
<path d="M378.936 128.919H205.821C203.33 128.917 200.942 128.191 199.18 126.9C197.419 125.61 196.428 123.86 196.425 122.034V94.9131C196.428 93.0879 197.419 91.3379 199.18 90.0472C200.942 88.7566 203.33 88.0306 205.821 88.0285H378.936C381.427 88.0306 383.816 88.7566 385.577 90.0473C387.339 91.3379 388.33 93.0879 388.332 94.9131V122.034C388.33 123.86 387.339 125.61 385.577 126.9C383.816 128.191 381.427 128.917 378.936 128.919Z" fill="white"/>
<path d="M378.936 129.128H205.821C203.254 129.126 200.794 128.378 198.979 127.048C197.164 125.718 196.143 123.915 196.14 122.034V94.9132C196.143 93.0326 197.164 91.2296 198.979 89.8998C200.794 88.57 203.254 87.822 205.821 87.8199H378.936C381.503 87.822 383.964 88.57 385.778 89.8998C387.593 91.2296 388.614 93.0326 388.617 94.9132V122.034C388.614 123.915 387.593 125.718 385.778 127.048C383.964 128.378 381.503 129.126 378.936 129.128ZM205.821 88.6544C203.556 88.6563 201.385 89.3163 199.784 90.4896C198.182 91.663 197.282 93.2538 197.279 94.9132V122.034C197.282 123.694 198.182 125.285 199.784 126.458C201.385 127.631 203.556 128.291 205.821 128.293H378.936C381.201 128.291 383.372 127.631 384.973 126.458C386.575 125.285 387.476 123.694 387.478 122.034V94.9132C387.476 93.2538 386.575 91.663 384.973 90.4896C383.372 89.3163 381.201 88.6563 378.936 88.6544H205.821Z" fill="#3F3D56"/>
<path d="M357.866 122.243H226.891C224.4 122.241 222.012 121.515 220.25 120.224C218.489 118.934 217.498 117.184 217.495 115.358V101.172C217.498 99.3466 218.489 97.5967 220.25 96.306C222.012 95.0154 224.4 94.2894 226.891 94.2873H357.866C360.357 94.2894 362.746 95.0154 364.507 96.306C366.269 97.5967 367.26 99.3466 367.262 101.172V115.358C367.26 117.184 366.269 118.934 364.507 120.224C362.746 121.515 360.357 122.241 357.866 122.243Z" fill="#F2F2F2"/>
<path d="M255.076 114.597C261.282 114.597 266.313 110.911 266.313 106.363C266.313 101.816 261.282 98.1301 255.076 98.1301C248.87 98.1301 243.84 101.816 243.84 106.363C243.84 110.911 248.87 114.597 255.076 114.597Z" fill="#FF6584"/>
<path d="M349.727 121.412L333.866 111.665L318.279 102.087C317.868 101.834 317.348 101.696 316.811 101.697C316.274 101.697 315.755 101.837 315.345 102.091L299.808 111.713L296.013 114.064L290.291 110.548L272.902 99.8615C272.49 99.6087 271.97 99.4705 271.434 99.4713C270.897 99.472 270.378 99.6117 269.968 99.8656L252.634 110.601L235.028 121.505C234.939 121.56 234.875 121.634 234.846 121.717C234.816 121.8 234.821 121.887 234.861 121.967C234.902 122.048 234.975 122.117 235.071 122.166C235.166 122.215 235.28 122.241 235.397 122.241L271.493 122.19L282.919 122.174L282.807 122.243L316.865 122.195L349.362 122.149C349.479 122.149 349.593 122.123 349.689 122.073C349.784 122.024 349.857 121.955 349.897 121.874C349.936 121.794 349.941 121.706 349.911 121.624C349.881 121.541 349.817 121.467 349.727 121.412Z" fill="#3F3D56"/>
<path d="M498.431 276H389.095C388.944 276 388.799 275.956 388.692 275.878C388.585 275.8 388.525 275.693 388.525 275.583C388.525 275.472 388.585 275.366 388.692 275.288C388.799 275.209 388.944 275.165 389.095 275.165H498.431C498.582 275.165 498.726 275.209 498.833 275.288C498.94 275.366 499 275.472 499 275.583C499 275.693 498.94 275.8 498.833 275.878C498.726 275.956 498.582 276 498.431 276Z" fill="#CCCCCC"/>
<path d="M343.985 55.0405C343.53 54.499 342.929 54.031 342.219 53.6651C341.509 53.2993 340.705 53.0432 339.856 52.9125C339.545 52.8646 339.229 52.8353 338.911 52.8249L295.524 24.4018C294.671 23.76 293.535 23.362 292.318 23.2794C292.078 23.2592 291.836 23.2536 291.595 23.2627C290.593 23.296 289.627 23.5423 288.814 23.9716C288.001 24.4008 287.377 24.9943 287.016 25.6795C286.656 26.3647 286.577 27.1119 286.787 27.8298C286.997 28.5477 287.488 29.2051 288.201 29.7217L304.812 40.3324L332.089 57.7526C332.111 58.0807 332.178 58.4064 332.288 58.7248C332.614 59.6473 333.316 60.4753 334.299 61.099C335.283 61.7227 336.502 62.1127 337.795 62.2172C338.974 62.3181 340.168 62.1735 341.24 61.8C342.09 61.5087 342.844 61.0859 343.449 60.5607C343.512 60.5065 343.569 60.4564 343.626 60.398C344.422 59.6377 344.883 58.7175 344.947 57.7603C345.011 56.8031 344.676 55.8543 343.985 55.0405Z" fill="#FFB8B8"/>
<path d="M269.773 82.433L269.369 70.3912L269.027 60.398L268.793 53.4049L268.332 39.7733C268.241 39.0435 267.862 38.3489 267.241 37.7743C266.62 37.1998 265.784 36.7702 264.835 36.5379C263.886 36.3056 262.866 36.2807 261.898 36.4662C260.931 36.6518 260.058 37.0397 259.386 37.5827C259.228 37.7068 259.085 37.8409 258.959 37.9833C258.258 38.719 257.942 39.6153 258.07 40.5077L259.084 60.398L259.591 70.3912L260.24 83.1382C260.053 83.3255 259.884 83.5221 259.733 83.7265C259.328 84.2892 259.084 84.9062 259.014 85.5403C258.945 86.1744 259.052 86.8122 259.329 87.415C259.618 88.0472 260.087 88.6272 260.705 89.117C261.322 89.6068 262.074 89.9952 262.911 90.2565C263.748 90.5179 264.652 90.6463 265.561 90.6334C266.471 90.6204 267.367 90.4664 268.19 90.1814C269.145 89.8504 269.975 89.352 270.605 88.7303C271.235 88.1086 271.647 87.3827 271.803 86.6168C271.96 85.8509 271.856 85.0685 271.502 84.3388C271.148 83.6091 270.554 82.9546 269.773 82.433Z" fill="#FFB8B8"/>
<path d="M308.838 48.3228L304.812 40.3324L298.297 27.3893C297.827 26.4476 297.074 25.5955 296.093 24.8963C295.112 24.1971 293.928 23.6687 292.631 23.3503C292.528 23.3253 292.42 23.3002 292.318 23.2794C291.061 22.9998 289.736 22.9229 288.434 23.054C287.133 23.1851 285.886 23.521 284.778 24.0387L262.837 34.2364C260.827 35.1681 259.391 36.6358 258.831 38.3292C258.271 40.0226 258.631 41.8092 259.836 43.3116C262.58 46.788 265.57 50.157 268.793 53.4049C271.35 55.9543 276.111 56.2255 276.937 60.398H293.115L309.493 49.6246L308.838 48.3228Z" fill="#CCCCCC"/>
<path d="M57.609 145.977C64.8966 145.977 70.8043 141.648 70.8043 136.308C70.8043 130.969 64.8966 126.64 57.609 126.64C50.3215 126.64 44.4137 130.969 44.4137 136.308C44.4137 141.648 50.3215 145.977 57.609 145.977Z" fill="#A0616A"/>
<path d="M90.0036 129.653C90.1336 129.729 90.2597 129.809 90.3817 129.894C90.9879 130.313 91.4666 130.82 91.7864 131.384C92.1062 131.947 92.2599 132.554 92.2375 133.164C92.2151 133.774 92.017 134.373 91.6562 134.923C91.2955 135.473 90.7802 135.961 90.1442 136.355C89.9959 136.446 89.8412 136.532 89.6808 136.611L90.5738 158.702C90.5992 159.425 90.3057 160.135 89.7369 160.727C89.1681 161.318 88.3543 161.759 87.4162 161.985L87.3617 161.993L62.8815 163.903C62.2159 163.955 61.543 163.91 60.9014 163.77C60.2599 163.63 59.6625 163.399 59.1437 163.089C58.625 162.779 58.1951 162.397 57.879 161.965C57.5629 161.533 57.3668 161.059 57.3021 160.571C57.2373 160.083 57.3051 159.59 57.5017 159.121C57.6982 158.652 58.0195 158.217 58.4471 157.839C58.8747 157.462 59.4 157.151 59.9928 156.923C60.5856 156.695 61.2341 156.556 61.9008 156.513L79.3514 155.387L82.3693 136.255C82.1719 136.127 81.987 135.989 81.8161 135.842C80.8698 135.022 80.3736 133.973 80.4236 132.899C80.4737 131.825 81.0664 130.804 82.0869 130.032C83.1073 129.261 84.4825 128.795 85.9455 128.725C87.4085 128.655 88.8548 128.986 90.0036 129.653Z" fill="#A0616A"/>
<path d="M79.3415 270.868H85.9284L89.0615 252.254H79.3403L79.3415 270.868Z" fill="#A0616A"/>
<path d="M77.6617 269.293L90.6328 269.292C91.7183 269.292 92.7938 269.449 93.7967 269.753C94.7996 270.058 95.7109 270.504 96.4785 271.066C97.2461 271.629 97.855 272.296 98.2704 273.031C98.6858 273.766 98.8996 274.554 98.8996 275.349V275.546L77.662 275.546L77.6617 269.293Z" fill="#2F2E41"/>
<path d="M13.8754 264.196L19.5347 266.665L35.225 251.845L26.8722 248.201L13.8754 264.196Z" fill="#A0616A"/>
<path d="M13.532 262.212L24.6772 267.074C25.61 267.481 26.4246 268.019 27.0738 268.656C27.723 269.294 28.1945 270.019 28.4613 270.79C28.7281 271.561 28.785 272.363 28.6289 273.15C28.4727 273.937 28.1064 274.694 27.5511 275.377L27.4136 275.546L9.16563 267.586L13.532 262.212Z" fill="#2F2E41"/>
<path d="M87.4824 264.294H80.1069C79.5097 264.294 78.9334 264.133 78.4893 263.84C78.0453 263.547 77.7651 263.145 77.703 262.709L70.2675 211.497C70.2487 211.368 70.1726 211.247 70.0508 211.153C69.9291 211.059 69.7684 210.997 69.5937 210.977C69.4191 210.956 69.24 210.978 69.0842 211.04C68.9283 211.101 68.8044 211.198 68.7315 211.316L55.3177 233.08L31.5693 261.454C31.2619 261.818 30.786 262.088 30.2287 262.216C29.6715 262.343 29.0701 262.32 28.5347 262.149L19.0474 259.09C18.7337 258.989 18.4529 258.84 18.2237 258.654C17.9945 258.467 17.8221 258.247 17.7179 258.007C17.6138 257.768 17.5802 257.515 17.6194 257.266C17.6587 257.016 17.7699 256.776 17.9456 256.56L39.777 229.776L46.4725 207.209C44.3666 197.422 53.3942 182.872 53.4858 182.726L53.5305 182.655L78.3973 175.534L78.522 175.645C88.3288 199.226 94.3046 224.602 89.8922 262.671C89.8378 263.112 89.5608 263.523 89.1153 263.823C88.6697 264.123 88.0876 264.291 87.4824 264.294Z" fill="#2F2E41"/>
<path d="M52.5287 185.04L52.4129 184.861C52.3575 184.776 46.8282 176.231 42.5658 167.098C41.7466 165.332 41.4369 163.461 41.6564 161.602C41.8758 159.744 42.6196 157.939 43.8406 156.303C45.0774 154.649 46.7695 153.202 48.8097 152.052C50.8499 150.903 53.1936 150.076 55.6925 149.625C60.0306 148.863 64.5979 149.268 68.5623 150.767C72.5266 152.266 75.6242 154.758 77.2907 157.79C80.6717 163.985 79.5942 170.598 78.5802 175.798L78.56 175.902L78.4306 175.947L52.5287 185.04Z" fill="#3F3D56"/>
<path d="M73.6079 130.847H52.6554V124.155C57.2542 122.816 61.7544 121.678 64.4748 124.155C66.897 124.155 69.2201 124.86 70.9329 126.115C72.6457 127.37 73.6079 129.072 73.6079 130.847Z" fill="#2F2E41"/>
<path d="M51.4954 122.974C38.9695 122.974 35.4635 134.478 35.4635 140.968C35.4635 144.588 37.6975 145.882 41.208 146.32L42.4477 141.475L45.3514 146.529C46.3375 146.532 47.3734 146.518 48.4474 146.504L49.4319 145.018L51.6273 146.477C60.4202 146.487 67.5269 147.426 67.5269 140.968C67.5269 134.478 64.4522 122.974 51.4954 122.974Z" fill="#2F2E41"/>
<path d="M109.905 276H0.569458C0.418428 276 0.273584 275.956 0.16679 275.878C0.0599959 275.8 0 275.693 0 275.583C0 275.472 0.0599959 275.366 0.16679 275.288C0.273584 275.209 0.418428 275.165 0.569458 275.165H109.905C110.056 275.165 110.201 275.209 110.308 275.288C110.415 275.366 110.475 275.472 110.475 275.583C110.475 275.693 110.415 275.8 110.308 275.878C110.201 275.956 110.056 276 109.905 276Z" fill="#CCCCCC"/>
<path d="M111.961 138.725H87.4746C86.0403 138.723 84.6653 138.305 83.6511 137.562C82.6369 136.819 82.0664 135.812 82.0647 134.761V116.819C82.0664 115.768 82.6369 114.76 83.6511 114.017C84.6653 113.274 86.0403 112.856 87.4746 112.855H111.961C113.396 112.856 114.771 113.274 115.785 114.017C116.799 114.76 117.37 115.768 117.371 116.819V134.761C117.37 135.812 116.799 136.819 115.785 137.562C114.771 138.305 113.396 138.723 111.961 138.725Z" fill="white"/>
<path d="M111.961 138.725H87.4746C86.0403 138.723 84.6653 138.305 83.6511 137.562C82.6369 136.819 82.0664 135.812 82.0647 134.761V116.819C82.0664 115.768 82.6369 114.76 83.6511 114.017C84.6653 113.274 86.0403 112.856 87.4746 112.855H111.961C113.396 112.856 114.771 113.274 115.785 114.017C116.799 114.76 117.37 115.768 117.371 116.819V134.761C117.37 135.812 116.799 136.819 115.785 137.562C114.771 138.305 113.396 138.723 111.961 138.725ZM87.4746 113.689C86.3423 113.69 85.2567 114.02 84.456 114.607C83.6553 115.194 83.2049 115.989 83.2037 116.819V134.761C83.2049 135.59 83.6553 136.386 84.456 136.972C85.2567 137.559 86.3423 137.889 87.4746 137.89H111.961C113.094 137.889 114.179 137.559 114.98 136.972C115.781 136.386 116.231 135.59 116.232 134.761V116.819C116.231 115.989 115.781 115.194 114.98 114.607C114.179 114.02 113.094 113.69 111.961 113.689H87.4746Z" fill="#3F3D56"/>
<path d="M107.69 131.423H91.7455C91.2926 131.422 90.8583 131.29 90.5381 131.056C90.2178 130.821 90.0376 130.503 90.0372 130.171V121.409C90.0376 121.077 90.2178 120.759 90.5381 120.524C90.8583 120.289 91.2926 120.157 91.7455 120.157H96.2342C96.5261 120.156 96.8134 120.21 97.0683 120.315C97.3232 120.419 97.5371 120.57 97.6892 120.752L98.9411 122.243H107.69C108.143 122.243 108.578 122.375 108.898 122.61C109.218 122.845 109.398 123.163 109.399 123.495V130.171C109.398 130.503 109.218 130.821 108.898 131.056C108.578 131.29 108.143 131.422 107.69 131.423Z" fill="#6C63FF"/>
<path d="M107.172 135.849C107.251 135.956 107.325 136.066 107.392 136.179C107.73 136.737 107.902 137.341 107.898 137.951C107.895 138.561 107.715 139.164 107.371 139.72C107.028 140.276 106.528 140.772 105.904 141.176C105.28 141.58 104.547 141.884 103.752 142.066C103.567 142.108 103.379 142.142 103.189 142.17L92.3131 162.784C91.9535 163.458 91.3071 164.029 90.4697 164.412C89.6323 164.795 88.6485 164.97 87.6645 164.912L87.6098 164.904L64.0362 159.704C63.3952 159.563 62.7989 159.33 62.2816 159.019C61.7642 158.707 61.3362 158.324 61.0221 157.891C60.7081 157.458 60.5142 156.984 60.4518 156.495C60.3894 156.007 60.4596 155.514 60.6584 155.046C60.8572 154.578 61.1807 154.143 61.6101 153.767C62.0396 153.391 62.5665 153.08 63.1604 152.854C63.7544 152.628 64.4036 152.491 65.0706 152.449C65.7375 152.408 66.4091 152.464 67.0464 152.614L83.726 156.538L96.6392 139.763C96.5251 139.589 96.4278 139.409 96.3481 139.225C95.9106 138.2 96.0088 137.092 96.6235 136.117C97.2382 135.142 98.3256 134.369 99.6746 133.948C101.023 133.527 102.538 133.489 103.923 133.84C105.309 134.192 106.466 134.908 107.172 135.849Z" fill="#A0616A"/>
</g>
<defs>
<clipPath id="clip0_1_2">
<rect width="499" height="276" fill="white"/>
</clipPath>
</defs>
</svg>
