<svg width="500" height="161" viewBox="0 0 500 161" fill="none" xmlns="http://www.w3.org/2000/svg">
<path d="M80.0177 13.9547L13.7342 80.245C-4.57808 61.9394 -4.57808 32.267 13.7342 13.9547C32.0466 -4.35762 61.7122 -4.35762 80.0245 13.9547" fill="#1E483E"/>
<path d="M13.5723 146.71L79.8625 80.4197C98.1748 98.732 98.1748 128.398 79.8625 146.71C61.5502 165.022 31.8846 165.022 13.5723 146.71Z" fill="#1E483E"/>
<path d="M70.2381 80.3263C70.2381 93.2725 59.7489 103.762 46.8027 103.762C33.8564 103.762 23.3672 93.2725 23.3672 80.3263C23.3672 67.3801 33.8632 56.8909 46.8027 56.8909C59.7421 56.8909 70.2381 67.3801 70.2381 80.3263Z" fill="#F8F5EE"/>
<path d="M133.888 108.635C139.22 118.585 146.679 129.243 164.444 129.243C177.586 129.243 187.185 120.893 187.185 110.235C187.185 100.819 179.368 94.778 168.353 90.5188L153.078 84.4777C135.137 77.5523 126.254 67.0698 126.254 51.4372C126.254 30.8299 143.486 18.2212 163.378 18.2212C179.368 18.2212 193.934 25.6798 200.86 41.6702L190.377 52.1527C185.045 37.762 175.278 31.5454 163.196 31.5454C146.146 31.5454 141.522 42.7366 141.522 51.0862C141.522 60.1445 147.205 65.8279 159.105 70.2693L174.205 75.9526C193.57 83.2357 202.446 94.427 202.446 108.993C202.446 128.534 186.813 142.567 163.722 142.567C147.205 142.567 132.632 135.459 123.756 118.767L133.881 108.642L133.888 108.635ZM314.723 34.0226C314.723 39.5305 310.282 44.1474 304.774 44.1474C299.266 44.1474 294.824 39.5305 294.824 34.0226C294.824 28.5147 299.266 24.0733 304.774 24.0733C310.282 24.0733 314.723 28.5147 314.723 34.0226ZM290.923 58.0048V70.6203C288.79 69.7293 285.24 68.845 280.798 68.845C263.566 68.845 261.082 82.3447 261.082 93.8937V140.609H246.691V58.0048H261.082V66.7121C261.791 65.1124 265.881 56.0541 279.914 56.0541C284.355 56.0541 288.088 56.9451 290.93 58.0048H290.923ZM495.558 125.328C484.542 135.986 473.533 142.56 459.143 142.56C429.835 142.56 414.202 121.244 414.202 99.2194C414.202 75.7704 430.901 56.0541 456.834 56.0541C482.767 56.0541 500 75.5949 500 104.727H429.302C431.61 118.936 442.977 129.243 458.967 129.243C469.092 129.243 477.975 123.91 485.791 115.385L495.558 125.335V125.328ZM483.834 92.996C482.409 79.4963 471.4 69.3715 456.652 69.3715C439.244 69.3715 430.719 81.8047 429.295 92.996H483.827H483.834ZM393.237 20.1719H407.446V140.609H393.237V127.994H392.879C386.838 136.519 376.363 142.56 362.147 142.56C339.232 142.56 318.624 124.444 318.624 98.5039C318.624 74.7039 338.165 56.0473 361.432 56.0473C373.69 56.0473 386.123 61.1975 392.873 70.9712H393.23V20.1719H393.237ZM364.105 69.3783C344.74 69.3783 333.731 84.8354 333.731 98.6861C333.731 117.694 348.472 129.243 363.572 129.243C379.913 129.243 393.237 115.918 393.237 99.4016C393.237 82.8847 379.562 69.3783 364.105 69.3783ZM297.666 58.0115H311.875V140.609H297.666V58.0048V58.0115ZM209.027 58.0115V49.662L223.236 35.4535V58.0115H239.401V70.627H223.236V121.251C223.236 125.692 224.66 127.292 230.343 127.292H239.759V140.434C237.626 140.609 231.41 140.609 228.035 140.609C213.469 140.609 209.027 135.635 209.027 122.844V70.6203H199.26V58.0048H209.027V58.0115Z" fill="#1E483E"/>
</svg>
